<svg width="703" height="730" viewBox="0 0 703 730" fill="none" xmlns="http://www.w3.org/2000/svg">
<path d="M165 1C170.77 1.05 178.46 2.73 184 2C177.48 0.500002 171.61 -0.00999784 165 1Z" fill="#280D05" style="fill:#280D05;fill:color(display-p3 0.1569 0.0510 0.0196);fill-opacity:1;"/>
<path d="M151 5C141.2 9.28 128.67 13.54 119 15C114.45 16.64 109.35 18.73 105 20C99.61 22.92 88.25 25.08 81 26C79.12 26.57 77.54 27.19 76 28C64.19 34.23 43.45 37.48 45.01 56.01C46.56 74.53 42.2 88.31 30 101C22.6 108.69 20.39 121.07 22 131C22.04 130 21.97 129 22 128C23.38 131.67 23.79 138.45 25.93 142.07C28.06 145.7 31.08 147.54 33.75 151.25C36.42 154.95 45.44 155.5 43 157C44.03 157.34 44.45 157.87 46 158C51.58 157.71 61.76 155.12 66 153C68.4 151.2 70.49 148.75 73 147C75.3 153.75 73.36 164.72 74 172C74.64 179.28 75.1 184.4 75 193C74.9 201.6 75.1 211.28 75 220C74.9 228.72 75.16 237.22 75 246C74.84 254.78 74.92 263.47 76 272C77.07 280.54 75 289.32 76 298C77 306.68 74.43 316.29 76 325C77.57 333.71 72.56 337.81 65.75 340.75C58.94 343.7 55.8 347.18 50.25 351.25C44.7 355.32 40.23 358.44 35.25 363.25C30.27 368.05 27.22 371.59 22.25 376.25C17.28 380.9 15.26 386.64 11.08 392.08C6.89 397.51 8.51 408.08 7 414C5.49 419.92 13.72 432.03 11 435C10.76 435.26 10.25 435.74 10 436C10.18 438.93 3.73 447.57 3 449C2.16 451.53 1.21 453.9 1 457C2.02 467.7 4.4 475.75 15.08 481.92C25.75 488.1 20 497.34 10.75 502.75C1.51 508.17 12.73 527.38 12 533C12.17 533.33 12.68 533.81 13 534C22.57 539.71 24.94 547.57 36.68 551.32C48.42 555.08 57.92 549.97 68 549C69.81 548.83 70.06 548.91 72 549C75.84 548.74 80.27 546.71 84 548C84.34 547.84 84.76 547.26 85 547C88.49 543.23 95.37 542.32 98.92 537.92C102.46 533.51 106.49 530.27 108.77 524.77C111.05 519.27 124.93 527.91 123 526C123.77 526.17 124.71 526.86 126 527C132.56 526.66 138.04 526.55 145 528C151.96 529.45 158.3 530.19 166 531C173.7 531.81 178.04 534.15 187 534C195.96 533.85 193.55 543.76 191 547C190.87 547.95 191 549.04 191 550C193.47 561.25 190 573.46 192.93 585.07C195.85 596.69 181.21 593.81 175 602C171.46 605.61 172.96 612.49 174 617C171.83 616.78 170.01 615.7 168 615C155.87 613.08 138.89 610.88 126 612C124.06 612.46 122.54 613.19 121 614C109.8 619.91 99.72 623.61 92.08 635.08C84.44 646.55 82.98 661.28 85 674C85.64 676.28 87.08 678.15 88 680C98.04 694.94 115.17 696.49 128 702C147.14 705.69 168.43 705.71 188 702C190.05 701.24 197.46 697.81 203.01 697.01C208.56 696.21 214.54 693.84 220.01 692.01C225.48 690.18 232.29 688.75 237 688C255.34 681.73 266.81 673.15 266 652C265.84 647.86 265.07 644.47 264 641C263.84 640.66 254.54 627.72 255 627C254.77 626.84 255 626 255 626C252.99 623.25 259.33 614.72 256.67 610.33C254.01 605.94 253.81 601.13 248.75 598.25C243.7 595.36 238.05 593.55 232 594C232.53 592.4 234.75 593.28 236 593C234.88 592.72 232.29 591.78 231 591C228.38 589.41 228.9 581.68 229 578C228.8 576.54 228.19 574.93 228 574C228.09 574.15 225.72 565.72 226 560C226.28 554.28 227.89 546.15 228 546C228.19 545.15 229.83 543.5 229 542C230.76 541.95 232.07 543.53 234 543C241.2 542.51 252.95 543.49 260.22 545.78C267.49 548.07 282.69 545.67 286 550C286.44 550.11 287.12 550.85 288 551C292.91 550.35 300.8 551.64 306 552C311.2 552.35 317.02 555.35 319 556C327.71 557.22 336.19 558.2 345 559C350.75 574.39 361.21 589.91 362 606C359.95 609.69 354.07 610.59 352.23 615.23C350.39 619.87 347.56 626.1 348 631C348.27 632.46 349.42 633.93 350 635C351.2 636.72 353.2 638.73 355 640C346.71 650.89 349.09 667.23 350 679C350.15 679.34 350.71 679.77 351 680C354.67 682.87 358.35 686.76 362.25 689.75C366.14 692.75 373.48 693.75 376 698C376.19 698.32 376.67 698.83 377 699C381.35 697.87 392.61 704.7 395 706C406.29 709.91 418.72 712.49 431 714C433.49 713.93 437.77 711.98 441 713C440.53 714.98 437.4 712.89 437 715C438.62 715.17 440.37 715 442 715C445.39 714.64 449.74 714.81 453 715C457.41 714.83 461.57 714.52 466 714C466.21 713.94 471.89 711.02 475.67 710.67C479.45 710.32 485.1 709.37 488 709C504.03 704.53 517.02 694.69 519 677C519.13 668.07 517.44 655.96 513.08 647.92C508.71 639.89 504.47 634.4 496.3 629.7C488.14 624.99 480.55 620.95 469.98 621.02C459.4 621.1 449.52 619.79 438.93 624.93C428.34 630.06 435.25 615.11 428.25 608.75C421.24 602.39 411.2 599.47 402 602C399.7 596.35 395.87 589.59 394.23 583.77C392.59 577.95 386.97 569.5 389 566C389 566 389.23 565.35 389 565C387.51 562.76 400.79 564.99 402 565C410.96 564.21 418.44 560.08 426 556C431.16 552.27 442.37 542.68 448 543C448.3 542.79 448.81 542.32 449 542C452.91 535.45 463.05 532.63 469.23 528.23C475.4 523.82 483.03 518.72 489.7 514.7C496.36 510.67 500.7 501.76 507 498C507.32 497.81 507.79 497.3 508 497C506.48 491.17 512.08 483.73 511 476C509.92 468.27 512.49 459.16 512 451C511.51 442.84 514.39 433.56 513 425C514.67 425.24 513.17 427.85 515 428C515.16 426.03 515 423.98 515 422C514.36 415.42 513.4 407.3 514 400C516.08 402.1 514.5 406.15 515 409C515.1 408.01 515.32 400.03 516 399C517.91 396.09 528.85 402.93 529 403C533 404.22 537.36 405.68 542 406C545.47 405.9 549.38 405.21 553 406C553.93 406 555.09 406.17 556 406C555.7 405.94 554.11 404.54 554 404C580.62 403.5 605.59 381.91 618 362C618.72 361.67 619.3 361.39 620 361C624.59 358.47 633.75 358.98 638 358C639.85 357.18 641.44 355.95 643 355C648.13 350.79 653.48 343.04 655 339C656.79 331.76 657.37 330.78 664 327C670.37 322.02 675.97 316.68 681.75 310.75C687.53 304.82 689.34 295.43 695 290C695.26 289.75 695.79 289.3 696 289C694.27 282.03 701.3 271.69 701 263C700.7 254.31 702.16 243.67 697.23 235.77C692.3 227.87 687.18 223.33 679 220C674.22 218.8 669.12 217.33 667.3 211.7C665.48 206.06 660.16 206.21 656.69 202.31C653.23 198.4 644.46 201.3 641 199C637.55 196.71 644.35 185.69 644.98 180.98C645.61 176.27 649.64 166.99 650.33 161.33C651.02 155.66 653.38 145.38 651.67 139.33C649.96 133.28 647.44 127.71 642.25 123.75C637.05 119.79 629.82 118.88 623.78 119.78C617.74 120.68 612.09 124.45 607.75 128.75C603.41 133.05 601.68 138.41 598.23 143.23C594.78 148.05 595.02 157.07 591 161C590.75 161.25 590.11 161.65 590 162C591.91 167.55 587.96 177.49 588 184C588.04 190.51 586.06 201.38 584 204C583.87 204.94 583.98 206.06 584 207C587.78 224.23 571.63 220.64 560.25 229.25C548.88 237.86 549.65 252.94 547 265C547 265.95 546.86 267.06 547 268C548.26 269.6 550.77 272.35 549 277C549.11 277.35 549.74 277.76 550 278C553.75 281.47 553.26 288 556.92 292.08C560.57 296.16 564.41 299.66 562 304C560.11 307.4 557.56 310.81 557 315C556.57 326.55 564.57 340.3 575 346C573.08 354.85 561.17 363.58 553 362C552.17 362.16 551.41 362.89 551 363C549.39 365.11 535.55 363.78 531.98 363.02C528.41 362.27 515.5 358.19 517 356C517 356 517 355.5 517 355C513.93 350.85 517.23 343.06 516 338C517.87 339.14 516.61 342.13 517 344C517.35 340.34 518 335.41 518 331C516.56 316.13 517.85 300.5 518 285C519.96 286.45 518.56 289.8 519 292C519.26 289.31 520 285.43 520 282C514.74 227.59 527.14 171.35 524 116C526.16 118.76 524.45 123.49 525 127C526.19 114.66 526.77 99.41 525 87C525 89 525 91 525 93C523.42 87.59 523.8 80.18 521.22 74.78C518.64 69.38 514.93 66.78 509.92 64.08C504.92 61.37 498.3 60.25 492.98 59.02C487.65 57.8 478.09 58.77 477 55C476.53 54.89 475.5 54.98 475 55C467.53 58.18 457.57 53.71 449 54C440.43 54.29 430.04 50.89 421 52C421.26 50.61 423.05 51.22 424 51C423.03 50.83 421.58 50.09 420 50C413.91 50.3 407.61 50.84 401 50C394.39 49.17 386.53 49.54 380 49C373.47 48.46 365.81 48.21 363 46C362.02 45.92 360.99 46 360 46C346.89 48.88 332.8 44.03 319 45C319.53 43.4 321.75 44.28 323 44C321.84 43.84 319.81 43.1 318 43C303.52 43.83 288.81 42.62 274 42C274.26 40.61 276.05 41.22 277 41C276.03 40.83 274.58 40.09 273 40C269.47 40.17 265.35 42.87 263 39C261.99 37.33 261.7 31.88 261 30C257.18 23.64 249.67 19.16 240.98 17.02C232.28 14.89 221.06 12.35 213 10C204.93 7.65 189.87 7.27 186 3C185.44 2.83 184.92 2.21 184 2C178.46 2.73 170.77 1.05 165 1C160.14 1.74 155.22 3.16 151 5ZM203 20C216.22 21.11 230.99 25.56 245 28C247.44 31.56 251.87 39.52 248 42C248.21 47.37 248.38 53.46 247.67 58.67C246.96 63.88 240.46 63.69 237 65C223.18 72.86 204.32 77.95 188.92 82.92C173.53 87.9 156.96 98.77 141 101C129.11 102.66 113.19 95.68 101.93 100.93C90.66 106.18 81.68 108.94 73.75 117.75C65.82 126.57 67.04 141.66 54 144C51.54 144.44 48.51 144.04 46 144C32.79 143.8 30.37 121.95 35.92 111.92C41.48 101.9 50.37 90.72 55 83C59.69 71.21 55.55 53.83 65 44C69.71 39.11 76.62 39.45 82 39C87.99 37.49 94.41 35.54 100 34C104.96 31.52 116.26 28.85 123 28C124.86 27.44 126.47 26.81 128 26C135.23 22.18 143.79 19.92 151 19C157.82 16.9 165.65 13.9 173 14C182.54 14.13 193.75 17.67 203 20ZM314 57C313.53 57.07 322.95 54.62 327 56C326.47 57.6 324.25 56.72 323 57C347.74 59.39 374.65 63 400 63C408.58 62.17 417.79 62.42 427 63C426.17 64.75 423.56 63.66 422 64C435.14 65.27 450.81 65.87 464.02 67.98C477.24 70.08 491 69 503 75C510.49 78.74 511.84 87.23 512 95C512 94.99 513 95 513 95C514.16 91.9 514.13 101.4 514 105C513.87 108.6 514.09 116.05 514 120C512.61 119.74 513.22 117.95 513 117C512.99 116.92 512 117 512 117C512 139.16 510 160.98 510 183C511.54 198.96 510.07 214.57 510 231C508.4 230.47 509.28 228.25 509 227C508.8 229.1 508 232.23 508 235C508.15 234.39 509.27 232.42 510 232C509.11 241.2 508.2 252.93 510 261C505.94 260.07 508.92 253.3 508 250C507.67 253.4 507 257.92 507 262C507.97 267.01 508.46 278.89 508 287C506.13 285.86 507.39 282.87 507 281C506.54 285.71 506 291.6 506 297C506.57 302.92 507.65 310.37 507 317C504.79 313.58 506.58 308.18 506 304C505.49 309.37 505 315.95 505 322C505.7 329.24 506.56 338.04 506 346C503.79 342.58 505.58 337.18 505 333C504.56 337.6 503.25 343.69 504 349C491.48 343.85 484.22 322.87 468.32 329.32C452.42 335.77 457.25 357.48 468.25 366.75C479.25 376.02 488.69 386.92 502 392C503.92 417.29 497.73 446.45 499 471C500.27 495.55 481.65 506.99 463.31 517.3C444.96 527.62 430.57 538.94 412 548C409.6 548.89 407.66 549.89 405 550C404.5 550.02 403.5 550 403 550C402.75 554.4 393.49 550.81 390 552C386.51 553.19 381.32 549.8 377 551C377.53 549.4 379.75 550.28 381 550C370.33 547.66 358.16 546.59 347 545C342.87 545.07 337.13 544.66 335 544C270.43 536.2 204.87 524.27 140 515C136.45 514.98 130.72 514.59 129 514C120.66 512.39 108.68 511.7 101 507C97.56 505.76 90.58 499.99 93 494C92.94 493.51 93.15 492.45 93 492C90.78 492 88.97 481.72 89.22 476.78C89.47 471.84 89.64 464.06 89 458C88.36 451.94 89.57 443.52 89 437C88.43 430.49 89.43 421.85 90 416C90 410.67 90 405.33 90 400C90 400.04 89 400 89 400C89 404.33 89 408.67 89 413C87.06 379.39 85.75 342.76 88 309C88 308.5 88 308 88 308C88 299.33 88 290.67 88 282C87.84 281.27 87.11 280.26 87 279C84.13 267.46 86.65 253.41 86 241C85.35 228.59 85.87 214.63 87 203C87 182.67 87 162.33 87 142C87 136.48 85.77 129.36 87 124C89.24 114.21 104.57 113.34 113.07 111.07C121.58 108.81 136.82 120.12 146.02 113.02C155.23 105.93 165.38 107.07 176 108C203.73 110.44 231.45 112.44 259 115C286.55 117.56 314.16 122.44 342 123C344.91 122.78 349.38 121.09 353 122C352.74 123.39 350.95 122.78 350 123C351.2 123.17 353.19 123.93 355 124C369.63 123.16 384.12 123.9 399 123C398.7 121.75 397.17 121.29 397 120C379.59 109.44 351.22 111.51 331 109C320.4 109.62 308.66 107.43 297 108C296.19 105.99 298.82 106.53 299 105C274.71 102.72 250.4 98.83 226 98C223.12 98.17 218.6 99.95 215 99C215.53 97.4 217.75 98.28 219 98C218.06 97.84 216.51 97.1 215 97C211.39 96.76 193.16 97.06 193 94C192.8 90.21 199.81 92.18 201 92C210.96 88.68 222.26 85.75 232.02 82.02C241.79 78.3 253.43 76.87 261 69C261.32 68.49 261.73 66.71 262 66C262.26 64.03 260.39 55.83 263 54C267.41 50.91 275.06 55.77 280.02 54.98C284.99 54.18 291.83 55.87 297.01 55.99C302.19 56.11 308.77 56.8 314 57ZM626 132C627.28 131.91 628.72 131.91 630 132C644.46 130.23 642.05 151.47 639 158C638.07 161.94 636.29 166.79 635 171C634.51 174.82 634.59 181.97 632 184C631.85 184.48 631.2 185.15 631 186C631.67 191.09 629.34 198.66 629 199C628.86 199.65 628.18 200.89 628 202C627.61 204.45 619.62 209.15 616.75 211.75C613.89 214.36 609.99 225.23 609 225C608.53 224.89 607.43 225.17 607 225C605.03 225.78 598.46 224.4 595.78 222.22C593.1 220.05 597.43 210.23 596 207C597.26 207.08 596.56 209.06 598 209C598.39 204.84 598.63 201.05 599 197C598.82 190.66 597.77 180.57 600 174C602.23 167.42 600.8 157.81 606 153C606.26 152.76 606.87 152.35 607 152C604.82 143.63 618.44 131.11 626 132ZM646 211C646.26 211.24 646.65 211.89 647 212C652.34 210.57 657.58 215.73 660 221C649.05 226.12 639.99 238.66 634 246C633.24 245.7 632.78 245.27 632 245C628.02 243.65 623.15 234.28 617 233C618.4 219.73 632.14 205.54 646 211ZM689 246C689.02 246.5 689 247 689 247C693.64 248.24 690.65 262.21 690.02 267.02C689.4 271.84 686.84 280.49 684.23 285.23C681.62 289.97 680.05 296.88 675 300C674.68 300.2 674.22 300.7 674 301C674.99 306.38 664.2 312.58 659.75 316.75C655.3 320.93 643.41 325.3 638 325C637.49 325.13 636.17 325.96 636 326C634.62 327.51 627.85 327.73 624 329C627.67 334.51 644.68 328.8 645.64 334.7C646.6 340.59 635.71 348.11 632 347C631.67 347.17 631.21 347.7 631 348C627.02 353.63 612.93 350.81 606.98 350.02C601.02 349.24 591 347.13 587 342C586.78 341.71 586.28 341.23 586 341C577.98 342.48 568.6 325.92 569 320C569.46 313.17 569.41 307.89 577 311C578.82 311.44 583.31 311.5 586 313C578.88 303.84 570.67 296.84 565.7 286.3C560.73 275.76 554.75 257.82 562 248C565.37 235.92 576.08 233.32 587 232C599.79 230.45 621.05 240.33 623 254C623.33 256.32 623.73 258.51 624 261C625.03 270.4 615.32 272.98 606.78 272.22C598.24 271.46 589.47 268.02 582 264C585.74 272.26 596.84 277.36 602 280C602.52 280.14 603.02 280.88 604 281C608.11 280.59 615.46 280.47 619 280C622.51 279.05 625.65 277.22 629 276C632.75 285.78 646.58 293.24 656 288C658.7 286.54 664.3 281.64 667.75 277.75C671.21 273.87 671.79 263.66 676 262C676.18 261.57 676 261 676 261C673.45 258.9 669.6 268.54 665.75 270.75C661.9 272.96 658.85 279.1 652.92 279.92C647 280.75 639.81 278.18 640 272C639.92 271.79 639 269.99 639 270C632.76 264.35 641.56 252.18 645.3 244.3C649.04 236.42 661.36 230.53 669 229C676.64 227.48 695.1 238.19 689 246ZM75 348C75.59 354.93 73.77 362.51 76 369C56.73 378.2 35.09 394.68 35 418C29.5 418.14 26.26 424.11 21 425C6.78 389.72 49.29 363.38 75 348ZM597 369C588.09 379.91 576.57 385.45 563.99 389.99C551.41 394.54 527.13 395.86 531 375C540.24 376.78 550.7 376.46 559.22 373.22C567.75 369.99 572.98 367.48 578.92 359.92C584.86 352.35 591.22 367.22 597 369ZM51 412C50.56 412.16 50 412 50 412C46.87 408.98 53.98 400.07 57.75 395.75C61.53 391.44 65.29 388.51 72.23 384.23C79.17 379.95 77.58 393.99 78 400C78.42 406.01 80.71 420.96 72.77 415.23C64.84 409.5 57.04 416.71 51 412ZM60 423C62.01 423.21 77.52 429.58 71 434C70.93 433.98 59.41 436.13 57 436C55.86 436.29 55.8 436.66 55 437C53.73 439.05 46.06 442.39 42.25 445.25C38.44 448.11 33.61 453.94 29.75 456.75C25.89 459.57 24.62 471.01 21 472C19.37 472.45 14.89 468.18 14 467C9.07 460.5 13.65 447.44 18.3 442.3C22.96 437.17 30.01 427.76 36 429C36.3 428.79 36.75 428.26 37 428C40.41 424.44 44.84 425.09 49.02 423.02C53.21 420.96 61.45 423.67 60 423ZM79 452C79.09 453.59 79.83 455.03 80 456C79.78 455.61 82.42 466.2 81.99 472.01C81.57 477.82 83.19 487.06 83 493C82.81 498.94 85.99 505.32 87.77 510.23C89.55 515.14 98.32 517.57 98 520C97.84 521.21 97.52 521.9 97 523C98.99 521.42 94.9 530.74 90.3 532.3C85.7 533.86 78.78 540.36 73 536C74.24 530.1 77.01 522.27 73 517C74.32 532.03 58.27 546.6 44 543C29.73 539.4 18.99 528.3 19 515C18.95 514.06 19.2 512.92 19 512C17.36 504.35 24.93 502.74 27.77 509.23C30.61 515.72 37.24 516.8 42 520C41.57 516.14 35.66 512.37 37 509C36.79 508.7 36.32 508.19 36 508C31.99 505.62 30.09 497.42 31 494C30.89 493.65 30.25 493.25 30 493C26.69 489.76 27.34 476.27 29 475C29.08 474.7 29.83 473.67 30 473C29.44 462.89 40.65 452.29 49 449C56.14 444.58 64.3 442.11 73 443C71.72 442.63 69.06 441.98 68 441C74.9 439.36 83.93 444.63 79 452ZM221 604C199.53 608.45 202.89 580.3 201 566C212.22 562.57 215.27 572.25 215.33 580.67C215.4 589.09 221.74 595.35 221 604ZM393 614C376.55 620.81 374.12 600.64 370 590C385.79 578.43 390.6 602.89 393 614ZM192 602C195.74 603.38 194.9 607.65 198.25 609.75C201.6 611.85 205.23 613.17 209 614C216.67 614.28 226.42 612.1 234 610C233.16 596.3 250.08 607.42 247.22 616.22C244.36 625.03 235.78 628.14 229 633C233.87 634.34 245.78 630.66 246 634C247 634.87 248.82 635.75 250 637C254.12 641.36 254.7 646.79 254 652C254.06 653.32 253.87 654.68 254 656C255.25 668.58 234.94 675.36 226 677C220.2 679.03 213.6 681.48 208 683C200.43 687.1 189.19 689.21 177.98 690.98C166.76 692.74 150.94 691.75 139 692C139.26 690.61 141.05 691.22 142 691C140.61 690.84 137.98 690.16 136 690C131.28 690.32 123.46 690.72 121 688C120.57 687.86 119.79 687.2 119 687C110.6 687.46 103 681.14 97.7 673.3C92.39 665.47 95.64 651.25 99.77 643.77C103.91 636.3 112.38 629.1 119.69 626.7C127.01 624.29 146.19 619.01 150 624C150.44 624.11 151.12 624.85 152 625C159.76 623.98 169.33 627.47 176 632C179.09 634.1 182.7 635.96 186 638C189.91 639.7 194.67 643.07 199 646C200.11 646.5 201.24 648.51 203 648C201.55 640.71 194.12 636.05 190 630C196.03 631.64 202.63 634.61 209 632C207.58 628.55 200.94 630.28 198 627C192.97 625.02 188.62 621.46 185.08 615.92C181.54 610.38 184.92 599.37 192 602ZM420 643C420.3 642.79 420.79 642.3 421 642C424.52 636.88 435.4 635.47 440 635C443.5 634.02 447.16 632.74 451 633C449.65 631.4 466.39 630.23 470.74 631.6C475.09 632.96 483.83 633.89 488.7 637.31C493.56 640.72 498.32 643.68 501.75 649.25C505.18 654.81 507.53 661.97 507 669C506.47 676.03 504.69 681.6 500.25 687.25C495.8 692.89 491.16 693.81 484.98 696.98C478.79 700.14 470.28 700.11 464 700C456.87 701.02 449.47 701 442 701C437.47 701.44 428.16 702.83 426 700C425.65 699.91 424.74 699.17 424 699C416.53 699.99 392.57 695.77 389 690C388.58 689.82 387.62 689.27 387 689C377.67 689.29 363.52 678.21 360.08 668.92C356.63 659.64 358.25 656.51 360.33 648.33C362.41 640.14 375.37 650.29 380 645C372.4 643.55 367.67 639.11 361.75 634.25C355.83 629.39 357.3 616.53 365 617C365.48 616.91 366 617 366 617C366.41 615.68 375.16 623.93 376 625C376.66 625.23 376.89 625.86 378 626C382.18 625.59 389.98 622.02 394 625C394.5 624.99 395 625 395 625C396.23 621.88 404.99 620.26 406 618C407.08 615.59 406.51 613.89 406 611C407 611 408 611 409 611C418.67 606.77 428.78 620.59 422.69 628.69C416.61 636.8 409.39 641.17 405 650C410.11 648.77 415.35 642.41 420 643Z" fill="#44220A" style="fill:#44220A;fill:color(display-p3 0.2667 0.1333 0.0392);fill-opacity:1;"/>
<path d="M261 30C255.54 15.39 240.92 16.53 228.02 11.98C215.13 7.43 199.11 7.09 186 3C189.87 7.27 204.93 7.65 213 10C221.06 12.35 232.28 14.89 240.98 17.02C249.67 19.16 257.18 23.64 261 30Z" fill="#270D06" style="fill:#270D06;fill:color(display-p3 0.1529 0.0510 0.0235);fill-opacity:1;"/>
<path d="M119 15C128.67 13.54 141.2 9.28 151 5C140.17 7.98 129.56 11.2 119 15Z" fill="#250A04" style="fill:#250A04;fill:color(display-p3 0.1451 0.0392 0.0157);fill-opacity:1;"/>
<path d="M151 19C143.42 21.33 135.49 23.39 128 26C126.47 26.81 124.86 27.44 123 28C115.4 30.29 107.66 31.89 100 34C94.41 35.54 87.99 37.49 82 39C77.02 40.25 69.23 40.92 65 44C55.55 53.83 59.69 71.21 55 83C50.96 93.16 42.72 102.02 37.25 111.25C31.78 120.47 33.6 141.48 46 144C48.51 144.04 51.54 144.44 54 144C37.47 145.39 41.05 124.12 45.78 113.78C50.51 103.44 57.7 93.69 59.99 81.99C62.28 70.3 63.18 54.16 79 54C76.82 52.93 75.14 51.09 73 50C96.86 48.56 120.48 60.29 146 57C129.78 56.05 109.69 53.73 98 41C109.33 33.62 124.02 33.54 136.08 28.08C148.14 22.61 163.86 23.32 173 14C165.65 13.9 157.82 16.9 151 19Z" fill="#F6E2AF" style="fill:#F6E2AF;fill:color(display-p3 0.9647 0.8863 0.6863);fill-opacity:1;"/>
<path d="M146 57C155.99 56.62 166.2 52.9 175.67 50.67C185.14 48.45 194.23 44.44 203.67 42.67C213.11 40.91 225.05 33.77 233 39C212.14 47.21 190.79 54.5 169 60C182.36 60.64 195.59 52.35 209.07 49.07C222.56 45.8 233.84 38.52 246 33C246.32 44.16 251.76 61.84 237 65C240.46 63.69 246.96 63.88 247.67 58.67C248.38 53.46 248.21 47.37 248 42C247.57 30.71 240.9 27.92 230.78 26.22C220.66 24.52 212.72 22.45 203 20C193.75 17.67 182.54 14.13 173 14C163.86 23.32 148.14 22.61 136.08 28.08C124.02 33.54 109.33 33.62 98 41C109.69 53.73 129.78 56.05 146 57Z" fill="#F5C354" style="fill:#F5C354;fill:color(display-p3 0.9608 0.7647 0.3294);fill-opacity:1;"/>
<path d="M128 26C135.49 23.39 143.42 21.33 151 19C143.79 19.92 135.23 22.18 128 26Z" fill="#260A02" style="fill:#260A02;fill:color(display-p3 0.1490 0.0392 0.0078);fill-opacity:1;"/>
<path d="M203 20C212.72 22.45 220.66 24.52 230.78 26.22C240.9 27.92 247.57 30.71 248 42C251.87 39.52 247.44 31.56 245 28C230.99 25.56 216.22 21.11 203 20Z" fill="#311003" style="fill:#311003;fill:color(display-p3 0.1922 0.0627 0.0118);fill-opacity:1;"/>
<path d="M81 26C88.25 25.08 99.61 22.92 105 20C97.08 22.31 88.88 23.62 81 26Z" fill="#2A1007" style="fill:#2A1007;fill:color(display-p3 0.1647 0.0627 0.0275);fill-opacity:1;"/>
<path d="M100 34C107.66 31.89 115.4 30.29 123 28C116.26 28.85 104.96 31.52 100 34Z" fill="#290D03" style="fill:#290D03;fill:color(display-p3 0.1608 0.0510 0.0118);fill-opacity:1;"/>
<path d="M44 59C44 63.16 43.49 67.56 43 71C42.55 82.79 36.25 91.71 30 101C42.2 88.31 46.56 74.53 45.01 56.01C43.45 37.48 64.19 34.23 76 28C58.66 33.51 44 37.17 44 59Z" fill="#280D04" style="fill:#280D04;fill:color(display-p3 0.1569 0.0510 0.0157);fill-opacity:1;"/>
<path d="M169 60C167.79 60.24 166.79 60.77 166 61C166.61 60.42 161.08 64.21 157.3 66.3C153.53 68.39 150.67 72.77 148.03 76.03C145.39 79.29 142.08 82.26 140.69 86.69C139.31 91.13 135.9 94.71 134 99C135.84 101.14 139.6 98.66 141 101C156.96 98.77 173.53 87.9 188.92 82.92C204.32 77.95 223.18 72.86 237 65C251.76 61.84 246.32 44.16 246 33C233.84 38.52 222.56 45.8 209.07 49.07C195.59 52.35 182.36 60.64 169 60Z" fill="#F0A832" style="fill:#F0A832;fill:color(display-p3 0.9412 0.6588 0.1961);fill-opacity:1;"/>
<path d="M146 57C120.48 60.29 96.86 48.56 73 50C75.14 51.09 76.82 52.93 79 54C102.51 65.5 140.38 68.3 166 61C166.79 60.77 167.79 60.24 169 60C190.79 54.5 212.14 47.21 233 39C225.05 33.77 213.11 40.91 203.67 42.67C194.23 44.44 185.14 48.45 175.67 50.67C166.2 52.9 155.99 56.62 146 57Z" fill="#3E1D09" style="fill:#3E1D09;fill:color(display-p3 0.2431 0.1137 0.0353);fill-opacity:1;"/>
<path d="M65 44C69.23 40.92 77.02 40.25 82 39C76.62 39.45 69.71 39.11 65 44Z" fill="#2B0E04" style="fill:#2B0E04;fill:color(display-p3 0.1686 0.0549 0.0157);fill-opacity:1;"/>
<path d="M273 40C269.59 39.8 266.07 40.37 263 39C265.35 42.87 269.47 40.17 273 40Z" fill="#250C05" style="fill:#250C05;fill:color(display-p3 0.1451 0.0471 0.0196);fill-opacity:1;"/>
<path d="M318 43C304.82 42.28 290.07 43.29 277 41C276.05 41.22 274.26 40.61 274 42C288.81 42.62 303.52 43.83 318 43Z" fill="#290F07" style="fill:#290F07;fill:color(display-p3 0.1608 0.0588 0.0275);fill-opacity:1;"/>
<path d="M360 46C347.58 46 335.5 42.9 323 44C321.75 44.28 319.53 43.4 319 45C332.8 44.03 346.89 48.88 360 46Z" fill="#220803" style="fill:#220803;fill:color(display-p3 0.1333 0.0314 0.0118);fill-opacity:1;"/>
<path d="M420 50C400.94 48.9 381.87 47.58 363 46C365.81 48.21 373.47 48.46 380 49C386.53 49.54 394.39 49.17 401 50C407.61 50.84 413.91 50.3 420 50Z" fill="#280E06" style="fill:#280E06;fill:color(display-p3 0.1569 0.0549 0.0235);fill-opacity:1;"/>
<path d="M475 55C466.6 55.32 458.3 52.91 450 52C441.7 51.09 432.3 52.45 424 51C423.05 51.22 421.26 50.61 421 52C430.04 50.89 440.43 54.29 449 54C457.57 53.71 467.53 58.18 475 55Z" fill="#280F07" style="fill:#280F07;fill:color(display-p3 0.1569 0.0588 0.0275);fill-opacity:1;"/>
<path d="M54 144C67.04 141.66 65.82 126.57 73.75 117.75C81.68 108.94 90.66 106.18 101.93 100.93C113.19 95.68 129.11 102.66 141 101C139.6 98.66 135.84 101.14 134 99C135.9 94.71 139.31 91.13 140.69 86.69C142.08 82.26 145.39 79.29 148.03 76.03C150.67 72.77 153.53 68.39 157.3 66.3C161.08 64.21 166.61 60.42 166 61C140.38 68.3 102.51 65.5 79 54C63.18 54.16 62.28 70.3 59.99 81.99C57.7 93.69 50.51 103.44 45.78 113.78C41.05 124.12 37.47 145.39 54 144Z" fill="#F5C454" style="fill:#F5C454;fill:color(display-p3 0.9608 0.7686 0.3294);fill-opacity:1;"/>
<path d="M262 66C263.42 62.23 263 58.12 263 54C260.39 55.83 262.26 64.03 262 66Z" fill="#2A090C" style="fill:#2A090C;fill:color(display-p3 0.1647 0.0353 0.0471);fill-opacity:1;"/>
<path d="M262 66C261.73 66.71 261.32 68.49 261 69C264.51 65.35 265.39 60.34 265 55C272.11 57.52 270.73 74.21 263.75 78.75C256.77 83.3 247.86 84.11 240.31 88.31C232.75 92.5 221.99 91.79 215 97C216.51 97.1 218.06 97.84 219 98C221.28 97.82 223.72 97.92 226 98C250.4 98.83 274.71 102.72 299 105C309.47 105.98 320.45 107.69 331 109C351.22 111.51 379.59 109.44 397 120C398.2 120.73 400.8 120.83 401 123C393.8 126.68 384.99 124.34 377 125C372.92 125 368.34 124.32 365 124C361.68 124 358.32 124.13 355 124C353.19 123.93 351.2 123.17 350 123C347.43 122.64 344.6 123.05 342 123C314.16 122.44 286.55 117.56 259 115C231.45 112.44 203.73 110.44 176 108C163.34 111.69 147.92 135.46 131.75 126.25C115.59 117.03 97.34 123.45 89 140C86.11 135.74 89.91 128.19 87 124C85.77 129.36 87 136.48 87 142C87.81 150.35 88.33 159.9 88 169C87.67 178.1 88.24 187.91 88 197C87.76 206.09 89.68 214.89 89 224C88.32 233.11 89.86 243.12 89 252C88.14 260.88 90.6 271.66 89 280C87.4 288.34 92.76 301.55 88 308C88 308 88 308.5 88 309C88 313.67 88 318.33 88 323C88.16 321.95 89.18 318.89 90 318C88.99 365.18 93.49 411.11 91 458C91 462.33 91 466.67 91 471C91.33 474.4 92 478.92 92 483C92 486.32 91.96 488.98 93 492C93.15 492.45 92.94 493.51 93 494C93.63 498.93 96.59 504.3 101 507C108.68 511.7 120.66 512.39 129 514C132.66 514.71 136.3 514.47 140 515C204.87 524.27 270.43 536.2 335 544C339.13 544.5 342.91 544.42 347 545C358.16 546.59 370.33 547.66 381 550C382 549.97 383 550 384 550C390.63 548.54 398.63 550.04 405 550C407.66 549.89 409.6 548.89 412 548C406.82 539.36 414.03 530.37 415 523C413.66 527.3 412.05 534.52 407 535C408.47 529.31 407.92 523.05 408 517C408 509.31 408.33 500.93 409 494C409 455.78 411 418.12 411 380C409.69 366.47 409.9 351.25 410 337C411.26 337.08 410.56 339.06 412 339C412 331 412 323 412 315C412 311 412 307 412 303C412 295.64 412.36 287.6 413 281C413 265 413 249 413 233C413 228.72 412.63 224.26 413 220C413.51 214.19 414 208.15 414 202C413.45 197.42 412.17 193.36 413 188C413.83 182.64 412.29 175.22 413 170C413.71 164.78 411.94 156.56 413 152C414.06 147.44 408.79 138.53 413 136C416.54 133.87 420.63 142.89 421 145C422.28 141.8 417.99 137.92 418.6 134.25C419.21 130.58 418.9 126.14 418 122C414.12 123.2 415.49 120.23 413 120C413.66 117.53 416.38 117.79 418 119C416.45 114.49 428.62 111.62 432.22 109.22C435.83 106.83 443.47 103.68 448.08 101.08C452.68 98.47 459.41 96.63 464.23 93.23C469.05 89.83 475.63 89.29 480.69 85.69C485.76 82.1 493.33 81.88 499 80C498.1 80.3 504.52 77.1 503 75C491 69 477.24 70.08 464.02 67.98C450.81 65.87 435.14 65.27 422 64C414.38 64.47 407.52 63 400 63C374.65 63 347.74 59.39 323 57C320.09 57.26 316.92 57.11 314 57C308.77 56.8 302.19 56.11 297.01 55.99C291.83 55.87 284.99 54.18 280.02 54.98C275.06 55.77 267.41 50.91 263 54C263 58.12 263.42 62.23 262 66ZM217 151C197.86 142.29 182.4 157.54 168 167C161.19 138.61 213.2 116.52 217 151ZM352 182C337.14 173.17 325.18 151.89 304 159C303.83 143.38 324.62 139.98 335.75 147.25C346.87 154.52 354.29 168.2 352 182ZM226 297C227.83 299.18 229.2 302.36 230 305C227.95 304.88 225.3 304.5 224 303C213.9 301.19 197.75 302.78 201 317C207.6 325.58 216.52 331.62 227 334C223.12 337.23 216.98 335.61 212 336C202.02 334.61 192.89 329.84 189.22 318.78C185.56 307.72 196.05 298.81 205 295C206.29 294.45 209.24 294.15 209 292C194.79 285.32 177.7 277.62 162 285C160.72 285.27 159.56 286.62 158 286C158.58 281.38 162.46 277.81 167 277C168.11 272.72 163.29 263.02 163 258C162.88 256.02 163 253.99 163 252C162.67 248.54 162.67 244.39 163 241C163 230.17 165.3 220.8 169 211C169.64 209.32 170.09 207.66 171 206C179.01 180.64 215.28 178.62 223.77 206.23C232.26 233.84 225.95 261.77 212 285C216.57 288.31 224.99 292.34 226 297ZM349 294C346.28 298.58 334.36 293.02 328 294C321.64 294.98 312.51 295.15 306.77 298.77C301.03 302.39 296.27 305.17 291 309C288 302.39 279.66 297.14 278 289C271.12 273.06 271.35 252.66 276 236C276.77 233.23 278.11 230.41 279 228C283.92 214.68 292.24 201.66 307 198C309.38 197.41 312.07 197.17 315 197C330.6 196.08 342.26 213.86 343 230C343.73 246.15 343.56 270.85 334 285C338.91 286.29 349.5 288.94 349 294ZM313 382C307.07 396.4 300.96 407.83 289 419C279.69 427.69 268.03 433.81 255 433C241.97 432.19 229.39 429.33 221.25 418.75C213.11 408.17 209.16 397.41 206.07 384.93C202.98 372.44 203.97 356.6 191.77 351.23C179.57 345.86 172.26 334.98 172 324C197.16 352.17 237.61 359.09 273 349C288.18 344.76 303.99 338.43 316 328C305.26 328.03 305.18 316.63 317 320C327.38 321.07 339.95 328.68 341 340C335.83 340.23 332.62 335.11 328 334C324.07 350.21 320.32 367.25 313 382ZM250 451C254.15 451.59 259.83 451.5 264 451C270.28 450.24 276.6 446.4 283 445C275.78 468.96 226.94 465.51 225 439C231.83 445.98 241.44 448.63 250 451Z" fill="#F5C352" style="fill:#F5C352;fill:color(display-p3 0.9608 0.7647 0.3216);fill-opacity:1;"/>
<path d="M261 69C253.43 76.87 241.79 78.3 232.02 82.02C222.26 85.75 210.96 88.68 201 92C198.43 92.86 195.78 93.77 193 94C193.16 97.06 211.39 96.76 215 97C221.99 91.79 232.75 92.5 240.31 88.31C247.86 84.11 256.77 83.3 263.75 78.75C270.73 74.21 272.11 57.52 265 55C265.39 60.34 264.51 65.35 261 69Z" fill="#E79C27" style="fill:#E79C27;fill:color(display-p3 0.9059 0.6118 0.1529);fill-opacity:1;"/>
<path d="M314 57C316.92 57.11 320.09 57.26 323 57C324.25 56.72 326.47 57.6 327 56C322.95 54.62 313.53 57.07 314 57Z" fill="#260600" style="fill:#260600;fill:color(display-p3 0.1490 0.0235 0.0000);fill-opacity:1;"/>
<path d="M525 87C523.53 76.68 520.43 66.69 509.69 62.31C498.96 57.92 488.15 57.58 477 55C478.09 58.77 487.65 57.8 492.98 59.02C498.3 60.25 504.92 61.37 509.92 64.08C514.93 66.78 518.64 69.38 521.22 74.78C523.8 80.18 523.42 87.59 525 93C525 91 525 89 525 87Z" fill="#280D06" style="fill:#280D06;fill:color(display-p3 0.1569 0.0510 0.0235);fill-opacity:1;"/>
<path d="M43 71C43.49 67.56 44 63.16 44 59C43.68 62.3 43.15 66.99 43 71Z" fill="#87684B" style="fill:#87684B;fill:color(display-p3 0.5294 0.4078 0.2941);fill-opacity:1;"/>
<path d="M400 63C407.52 63 414.38 64.47 422 64C423.56 63.66 426.17 64.75 427 63C417.79 62.42 408.58 62.17 400 63Z" fill="#290A01" style="fill:#290A01;fill:color(display-p3 0.1608 0.0392 0.0039);fill-opacity:1;"/>
<path d="M499 80C496.09 88.08 484.28 91.43 475.31 96.31C466.33 101.18 457.1 105.64 447.77 110.77C438.44 115.9 428.3 121.62 418 119C416.38 117.79 413.66 117.53 413 120C415.49 120.23 414.12 123.2 418 122C418.9 126.14 419.21 130.58 418.6 134.25C417.99 137.92 422.28 141.8 421 145C421.09 145.48 420.9 146.98 421 147C422.08 147.24 421.81 148.17 422 149C423.15 154.01 423.33 159.64 423 165C423.17 166.75 423.95 169.6 424 172C424.19 181.33 424 190.67 424 200C425.1 211.31 425.09 224.76 424 236C424 240.67 424 245.33 424 250C424 258.67 424 267.33 424 276C424 280.74 423.39 286.01 423 290C423 300.33 423 310.67 423 321C423 321.5 423 322.5 423 323C428.63 336.25 422.53 356.08 424 371C425.47 385.92 420.82 404.44 423 420C420.84 417.24 422.55 412.51 422 409C422 409.04 421 409 421 409C421 437.87 419 466.32 419 495C419 504.42 417.74 514.21 415 523C414.03 530.37 406.82 539.36 412 548C430.57 538.94 444.96 527.62 463.31 517.3C481.65 506.99 500.27 495.55 499 471C497.73 446.45 503.92 417.29 502 392C488.69 386.92 479.25 376.02 468.25 366.75C457.25 357.48 452.42 335.77 468.32 329.32C484.22 322.87 491.48 343.85 504 349C503.25 343.69 504.56 337.6 505 333C505 329.33 505 325.67 505 322C505 315.95 505.49 309.37 506 304C506 301.67 506 299.33 506 297C506 291.6 506.54 285.71 507 281C506.75 274.69 507 268.32 507 262C507 257.92 507.67 253.4 508 250C508 245 508 240 508 235C508 232.23 508.8 229.1 509 227C507.69 212.2 510 197.61 510 183C510 160.98 512 139.16 512 117C512 109.67 512.15 102.33 512 95C511.84 87.23 510.49 78.74 503 75C504.52 77.1 498.1 80.3 499 80Z" fill="#EBA42D" style="fill:#EBA42D;fill:color(display-p3 0.9216 0.6431 0.1765);fill-opacity:1;"/>
<path d="M418 119C428.3 121.62 438.44 115.9 447.77 110.77C457.1 105.64 466.33 101.18 475.31 96.31C484.28 91.43 496.09 88.08 499 80C493.33 81.88 485.76 82.1 480.69 85.69C475.63 89.29 469.05 89.83 464.23 93.23C459.41 96.63 452.68 98.47 448.08 101.08C443.47 103.68 435.83 106.83 432.22 109.22C428.62 111.62 416.45 114.49 418 119Z" fill="#3F1D09" style="fill:#3F1D09;fill:color(display-p3 0.2471 0.1137 0.0353);fill-opacity:1;"/>
<path d="M46 144C33.6 141.48 31.78 120.47 37.25 111.25C42.72 102.02 50.96 93.16 55 83C50.37 90.72 41.48 101.9 35.92 111.92C30.37 121.95 32.79 143.8 46 144Z" fill="#321406" style="fill:#321406;fill:color(display-p3 0.1961 0.0784 0.0235);fill-opacity:1;"/>
<path d="M193 94C195.78 93.77 198.43 92.86 201 92C199.81 92.18 192.8 90.21 193 94Z" fill="#2E0E0D" style="fill:#2E0E0D;fill:color(display-p3 0.1804 0.0549 0.0510);fill-opacity:1;"/>
<path d="M513 95C513.63 101.94 513.63 110.06 513 117C513.22 117.95 512.61 119.74 514 120C514.09 116.05 513.87 108.6 514 105C514.13 101.4 514.16 91.9 513 95Z" fill="#290600" style="fill:#290600;fill:color(display-p3 0.1608 0.0235 0.0000);fill-opacity:1;"/>
<path d="M512 117C512 117 512.99 116.92 513 117C513.63 110.06 513.63 101.94 513 95C513 95 512 94.99 512 95C512.15 102.33 512 109.67 512 117Z" fill="#8A530E" style="fill:#8A530E;fill:color(display-p3 0.5412 0.3255 0.0549);fill-opacity:1;"/>
<path d="M226 98C223.72 97.92 221.28 97.82 219 98C217.75 98.28 215.53 97.4 215 99C218.6 99.95 223.12 98.17 226 98Z" fill="#230500" style="fill:#230500;fill:color(display-p3 0.1373 0.0196 0.0000);fill-opacity:1;"/>
<path d="M331 109C320.45 107.69 309.47 105.98 299 105C298.82 106.53 296.19 105.99 297 108C308.66 107.43 320.4 109.62 331 109Z" fill="#33130A" style="fill:#33130A;fill:color(display-p3 0.2000 0.0745 0.0392);fill-opacity:1;"/>
<path d="M87 124C89.91 128.19 86.11 135.74 89 140C97.34 123.45 115.59 117.03 131.75 126.25C147.92 135.46 163.34 111.69 176 108C165.38 107.07 155.23 105.93 146.02 113.02C136.82 120.12 121.58 108.81 113.07 111.07C104.57 113.34 89.24 114.21 87 124Z" fill="#E89D27" style="fill:#E89D27;fill:color(display-p3 0.9098 0.6157 0.1529);fill-opacity:1;"/>
<path d="M520 282C520 280 520 278 520 276C520 271.92 520.68 267.34 521 264C521 229.11 524 194.94 524 160C524 156.25 524.71 152.01 525 149C525 141.67 525 134.33 525 127C524.45 123.49 526.16 118.76 524 116C527.14 171.35 514.74 227.59 520 282Z" fill="#270B03" style="fill:#270B03;fill:color(display-p3 0.1529 0.0431 0.0118);fill-opacity:1;"/>
<path d="M591 161C595.02 157.07 594.78 148.05 598.23 143.23C601.68 138.41 603.41 133.05 607.75 128.75C612.09 124.45 617.74 120.68 623.78 119.78C629.82 118.88 637.05 119.79 642.25 123.75C647.44 127.71 649.96 133.28 651.67 139.33C653.38 145.38 651.02 155.66 650.33 161.33C649.64 166.99 645.61 176.27 644.98 180.98C644.35 185.69 637.55 196.71 641 199C643.54 175.99 669 142.52 643.08 122.92C617.16 103.32 596.34 140.54 591 161Z" fill="#2B1107" style="fill:#2B1107;fill:color(display-p3 0.1686 0.0667 0.0275);fill-opacity:1;"/>
<path d="M355 124C358.32 124.13 361.68 124 365 124C369.08 124 373.66 124.68 377 125C384.99 124.34 393.8 126.68 401 123C400.8 120.83 398.2 120.73 397 120C397.17 121.29 398.7 121.75 399 123C384.12 123.9 369.63 123.16 355 124Z" fill="#290A04" style="fill:#290A04;fill:color(display-p3 0.1608 0.0392 0.0157);fill-opacity:1;"/>
<path d="M342 123C344.6 123.05 347.43 122.64 350 123C350.95 122.78 352.74 123.39 353 122C349.38 121.09 344.91 122.78 342 123Z" fill="#240400" style="fill:#240400;fill:color(display-p3 0.1412 0.0157 0.0000);fill-opacity:1;"/>
<path d="M377 125C373.66 124.68 369.08 124 365 124C368.34 124.32 372.92 125 377 125Z" fill="#6F4303" style="fill:#6F4303;fill:color(display-p3 0.4353 0.2627 0.0118);fill-opacity:1;"/>
<path d="M22 131C24.15 144.26 30.04 152.71 43 157C45.44 155.5 36.42 154.95 33.75 151.25C31.08 147.54 28.06 145.7 25.93 142.07C23.79 138.45 23.38 131.67 22 128C21.97 129 22.04 130 22 131Z" fill="#280D05" style="fill:#280D05;fill:color(display-p3 0.1569 0.0510 0.0196);fill-opacity:1;"/>
<path d="M607 152C609.94 144.28 616.58 132.69 626 132C618.44 131.11 604.82 143.63 607 152Z" fill="#280E05" style="fill:#280E05;fill:color(display-p3 0.1569 0.0549 0.0196);fill-opacity:1;"/>
<path d="M630 132C642.14 132.89 641.02 149.44 639 158C642.05 151.47 644.46 130.23 630 132Z" fill="#2E1005" style="fill:#2E1005;fill:color(display-p3 0.1804 0.0627 0.0196);fill-opacity:1;"/>
<path d="M607 152C606.87 152.35 606.26 152.76 606 153C601.95 167.3 600.37 181.94 599 197C598.63 201.05 598.39 204.84 598 209C597.64 212.89 595.89 216.92 596 221C599.62 222.51 603.62 222.76 607 225C607.43 225.17 608.53 224.89 609 225C611.28 220.71 612.64 215.08 616.25 211.25C619.85 207.41 626.23 205.55 628 202C628.18 200.89 628.86 199.65 629 199C629.97 194.68 630.01 190.32 631 186C631.2 185.15 631.85 184.48 632 184C633.3 179.82 633.69 175.25 635 171C636.29 166.79 638.07 161.94 639 158C641.02 149.44 642.14 132.89 630 132C628.72 131.91 627.28 131.91 626 132C616.58 132.69 609.94 144.28 607 152Z" fill="#F7EAD1" style="fill:#F7EAD1;fill:color(display-p3 0.9686 0.9176 0.8196);fill-opacity:1;"/>
<path d="M217 151C213.2 116.52 161.19 138.61 168 167C182.4 157.54 197.86 142.29 217 151Z" fill="#411F09" style="fill:#411F09;fill:color(display-p3 0.2549 0.1216 0.0353);fill-opacity:1;"/>
<path d="M414 202C414 201 414 200 414 199C414 193.67 414 188.33 414 183C414 172.67 414 162.33 414 152C414 146.56 414.31 141.12 413 136C408.79 138.53 414.06 147.44 413 152C411.94 156.56 413.71 164.78 413 170C412.29 175.22 413.83 182.64 413 188C412.17 193.36 413.45 197.42 414 202Z" fill="#F6DD78" style="fill:#F6DD78;fill:color(display-p3 0.9647 0.8667 0.4706);fill-opacity:1;"/>
<path d="M414 152C414.93 161.62 415 172.67 415 183C415 186.33 415 189.67 415 193C417.83 175.69 414.62 154.87 416 138C418.28 140.33 419.34 146.97 421 147C420.9 146.98 421.09 145.48 421 145C420.63 142.89 416.54 133.87 413 136C414.31 141.12 414 146.56 414 152Z" fill="#2D0C00" style="fill:#2D0C00;fill:color(display-p3 0.1765 0.0471 0.0000);fill-opacity:1;"/>
<path d="M415 183C415 183.04 414 183 414 183C414 188.33 414 193.67 414 199C414.86 207.9 415.44 218.38 415 228C412.41 226.36 415.66 221.57 413 220C412.63 224.26 413 228.72 413 233C413.92 237.74 416.53 243.71 414.67 251.67C412.81 259.63 414.29 270.21 414 279C413.71 287.79 413.88 297.94 414 307C414.12 316.06 413.61 325.06 413 334C412.39 342.94 413.39 353.03 413 362C412.61 370.97 413.42 378.67 412.94 387.08C412.45 395.49 411.48 405.06 412 414C412.52 422.94 412 430.65 411 439C410 447.35 412.15 458.91 411 467C409.85 475.09 411.62 482.82 410 490C408.39 497.18 413.95 512.2 409 517C408.74 517.25 408 517 408 517C407.92 523.05 408.47 529.31 407 535C412.05 534.52 413.66 527.3 415 523C417.74 514.21 419 504.42 419 495C418.42 488.99 417.71 481.73 418 475C418.29 468.27 419.22 460.7 419 454C418.78 447.3 419.28 438.18 419 432C418.72 425.82 420.83 418.15 420 413C419.17 407.85 421.2 394.14 421 394C421.35 394.23 422 394 422 394C422 388.33 422 382.67 422 377C421.55 373.65 420.45 366.06 421 360C421.55 353.94 420.58 346.21 421 340C423.25 344.42 421.39 350.83 422 356C422.99 345.72 423 333.98 423 323C423 322.5 423 321.5 423 321C416.85 306.53 425.53 285.63 422 270C423.87 271.14 422.61 274.13 423 276C423 275.98 424 276 424 276C424 267.33 424 258.67 424 250C421.62 225.36 422.11 196.58 424 172C423.95 169.6 423.17 166.75 423 165C422.9 166.66 423.08 168.34 423 170C421.86 163.85 420.77 154.87 422 149C421.81 148.17 422.08 147.24 421 147C419.34 146.97 418.28 140.33 416 138C414.62 154.87 417.83 175.69 415 193C415 189.67 415 186.33 415 183Z" fill="#45230B" style="fill:#45230B;fill:color(display-p3 0.2706 0.1373 0.0431);fill-opacity:1;"/>
<path d="M87 203C87 208.67 87 214.33 87 220C88.09 231.26 88 244.03 88 256C88 259.67 88 263.33 88 267C88 272 88 277 88 282C88 290.67 88 299.33 88 308C92.76 301.55 87.4 288.34 89 280C90.6 271.66 88.14 260.88 89 252C89.86 243.12 88.32 233.11 89 224C89.68 214.89 87.76 206.09 88 197C88.24 187.91 87.67 178.1 88 169C88.33 159.9 87.81 150.35 87 142C87 162.33 87 182.67 87 203Z" fill="#FDE878" style="fill:#FDE878;fill:color(display-p3 0.9922 0.9098 0.4706);fill-opacity:1;"/>
<path d="M352 182C354.29 168.2 346.87 154.52 335.75 147.25C324.62 139.98 303.83 143.38 304 159C325.18 151.89 337.14 173.17 352 182Z" fill="#41200A" style="fill:#41200A;fill:color(display-p3 0.2549 0.1255 0.0392);fill-opacity:1;"/>
<path d="M73 187C73.36 190.73 74 195.59 74 200C74 206.33 74 212.67 74 219C74 227 74 235 74 243C74 259.33 74 275.67 74 292C74.74 299.66 75 308.64 75 317C75 327.64 74.74 336.35 64.7 339.7C54.65 343.04 53.49 348.24 45.75 352.75C38.02 357.26 35.29 362.16 28.75 367.75C22.22 373.34 18.44 378.46 13.3 385.31C8.16999 392.15 6.60998 400.28 4.99998 409C3.38998 417.72 9.50998 427.04 11 435C13.72 432.03 5.48998 419.92 6.99998 414C8.50998 408.08 6.88999 397.51 11.08 392.08C15.26 386.64 17.28 380.9 22.25 376.25C27.22 371.59 30.27 368.05 35.25 363.25C40.23 358.44 44.7 355.32 50.25 351.25C55.8 347.18 58.94 343.7 65.75 340.75C72.56 337.81 77.57 333.71 76 325C74.43 316.29 77 306.68 76 298C75 289.32 77.07 280.54 76 272C74.92 263.47 74.84 254.78 75 246C75.16 237.22 74.9 228.72 75 220C75.1 211.28 74.9 201.6 75 193C75.1 184.4 74.64 179.28 74 172C73.36 164.72 75.3 153.75 73 147C73 160.33 73 173.67 73 187Z" fill="#260A03" style="fill:#260A03;fill:color(display-p3 0.1490 0.0392 0.0118);fill-opacity:1;"/>
<path d="M423 165C423.33 159.64 423.15 154.01 422 149C420.77 154.87 421.86 163.85 423 170C423.08 168.34 422.9 166.66 423 165Z" fill="#240A0B" style="fill:#240A0B;fill:color(display-p3 0.1412 0.0392 0.0431);fill-opacity:1;"/>
<path d="M524 160C524.29 156.99 525 152.75 525 149C524.71 152.01 524 156.25 524 160Z" fill="#6E4E32" style="fill:#6E4E32;fill:color(display-p3 0.4314 0.3059 0.1961);fill-opacity:1;"/>
<path d="M46 158C53.61 158.65 60.21 157.35 66 153C61.76 155.12 51.58 157.71 46 158Z" fill="#260D06" style="fill:#260D06;fill:color(display-p3 0.1490 0.0510 0.0235);fill-opacity:1;"/>
<path d="M414 183C414 183 415 183.04 415 183C415 172.67 414.93 161.62 414 152C414 162.33 414 172.67 414 183Z" fill="#A77628" style="fill:#A77628;fill:color(display-p3 0.6549 0.4627 0.1569);fill-opacity:1;"/>
<path d="M599 197C600.37 181.94 601.95 167.3 606 153C600.8 157.81 602.23 167.42 600 174C597.77 180.57 598.82 190.66 599 197Z" fill="#280E05" style="fill:#280E05;fill:color(display-p3 0.1569 0.0549 0.0196);fill-opacity:1;"/>
<path d="M584 204C586.06 201.38 588.04 190.51 588 184C587.96 177.49 591.91 167.55 590 162C585.99 175.27 585.9 190.24 584 204Z" fill="#280D05" style="fill:#280D05;fill:color(display-p3 0.1569 0.0510 0.0196);fill-opacity:1;"/>
<path d="M632 184C634.59 181.97 634.51 174.82 635 171C633.69 175.25 633.3 179.82 632 184Z" fill="#2D1005" style="fill:#2D1005;fill:color(display-p3 0.1765 0.0627 0.0196);fill-opacity:1;"/>
<path d="M424 250C424 245.33 424 240.67 424 236C424 224 424 212 424 200C424 190.67 424.19 181.33 424 172C422.11 196.58 421.62 225.36 424 250Z" fill="#200404" style="fill:#200404;fill:color(display-p3 0.1255 0.0157 0.0157);fill-opacity:1;"/>
<path d="M509 227C509.28 228.25 508.4 230.47 510 231C510.07 214.57 511.54 198.96 510 183C510 197.61 507.69 212.2 509 227Z" fill="#2D0B01" style="fill:#2D0B01;fill:color(display-p3 0.1765 0.0431 0.0039);fill-opacity:1;"/>
<path d="M171 206C178.62 192.16 194.58 179.48 209.75 190.25C224.91 201.03 227.04 220.67 226 238C224.96 255.33 220.04 271.65 209 285C215.43 287.77 220.62 292.54 226 297C224.99 292.34 216.57 288.31 212 285C225.95 261.77 232.26 233.84 223.77 206.23C215.28 178.62 179.01 180.64 171 206Z" fill="#F0D572" style="fill:#F0D572;fill:color(display-p3 0.9412 0.8353 0.4471);fill-opacity:1;"/>
<path d="M171 206C170.09 207.66 169.64 209.32 169 211C166.33 224.95 163.45 242.55 163 258C163.29 263.02 168.11 272.72 167 277C166.68 278.23 156.4 283.58 162 285C177.7 277.62 194.79 285.32 209 292C209.24 294.15 206.29 294.45 205 295C200.57 298.73 196.21 298.68 192.75 304.75C189.28 310.81 190.16 320.95 194.92 326.08C199.68 331.22 207.15 333.67 214 334C213.92 335.26 211.94 334.56 212 336C216.98 335.61 223.12 337.23 227 334C216.52 331.62 207.6 325.58 201 317C199.07 314.49 199.73 306.05 205.08 303.08C210.44 300.12 220.89 301.74 224 303C225.3 304.5 227.95 304.88 230 305C229.2 302.36 227.83 299.18 226 297C220.62 292.54 215.43 287.77 209 285C220.04 271.65 224.96 255.33 226 238C227.04 220.67 224.91 201.03 209.75 190.25C194.58 179.48 178.62 192.16 171 206ZM214 207C215.56 210.09 216.27 212.66 217 216C219.3 221.26 220.41 226.15 219 233C218.91 234.1 219.53 237.68 218 236C214.51 234.54 215.12 225.98 212.25 222.75C209.37 219.53 203.05 216.04 199.31 220.31C195.56 224.57 193.09 228.24 192.22 233.22C191.36 238.21 188.37 245.56 188 247C187.19 256.25 193.02 268.88 191 276C190.17 278.9 183.33 275.37 177.98 275.02C172.62 274.67 170.79 268.15 170.01 262.99C169.22 257.84 167.74 249.73 168 244C170.49 245.33 167.43 249.74 170 251C170 245.11 170.11 239.59 171 234C171.04 227.67 172.29 216.03 176.31 210.31C180.32 204.58 184.96 194.17 192 196C192.33 195.83 192.74 195.24 193 195C201.18 187.45 212.57 202.12 214 207Z" fill="#43210A" style="fill:#43210A;fill:color(display-p3 0.2627 0.1294 0.0392);fill-opacity:1;"/>
<path d="M629 199C629.34 198.66 631.67 191.09 631 186C630.01 190.32 629.97 194.68 629 199Z" fill="#260B05" style="fill:#260B05;fill:color(display-p3 0.1490 0.0431 0.0196);fill-opacity:1;"/>
<path d="M193 195C201.93 193.02 210.22 199.53 214 207C212.57 202.12 201.18 187.45 193 195Z" fill="#230804" style="fill:#230804;fill:color(display-p3 0.1373 0.0314 0.0157);fill-opacity:1;"/>
<path d="M171 234C173.35 219.26 177.61 203.45 192 196C184.96 194.17 180.32 204.58 176.31 210.31C172.29 216.03 171.04 227.67 171 234Z" fill="#290D04" style="fill:#290D04;fill:color(display-p3 0.1608 0.0510 0.0157);fill-opacity:1;"/>
<path d="M192 196C177.61 203.45 173.35 219.26 171 234C170.11 239.59 170 245.11 170 251C170 259.38 171.58 266.63 175 274C180.63 273.54 185.8 274.7 191 276C193.02 268.88 187.19 256.25 188 247C188.6 240.18 190.24 232.56 193.31 226.31C196.37 220.05 201.64 215.58 209.07 217.93C216.5 220.27 214.52 232.18 218 236C219.53 237.68 218.91 234.1 219 233C219.49 226.94 218.22 221.58 217 216C216.27 212.66 215.56 210.09 214 207C210.22 199.53 201.93 193.02 193 195C192.74 195.24 192.33 195.83 192 196Z" fill="#F6E9D1" style="fill:#F6E9D1;fill:color(display-p3 0.9647 0.9137 0.8196);fill-opacity:1;"/>
<path d="M315 197C331.87 198.73 341.39 216.96 341.98 233.02C342.56 249.09 341.63 272.78 331 286C337.49 286.73 344.53 289.21 349 294C349.5 288.94 338.91 286.29 334 285C343.56 270.85 343.73 246.15 343 230C342.26 213.86 330.6 196.08 315 197Z" fill="#F0D471" style="fill:#F0D471;fill:color(display-p3 0.9412 0.8314 0.4431);fill-opacity:1;"/>
<path d="M307 198C308.54 197.37 300.03 201.33 296.92 203.92C293.81 206.51 288.67 210.69 286.7 214.7C284.73 218.71 281.08 224.27 279 228C278.11 230.41 276.77 233.23 276 236C274.16 252.85 274.11 272.47 278 289C279.66 297.14 288 302.39 291 309C296.27 305.17 301.03 302.39 306.77 298.77C312.51 295.15 321.64 294.98 328 294C334.36 293.02 346.28 298.58 349 294C344.53 289.21 337.49 286.73 331 286C341.63 272.78 342.56 249.09 341.98 233.02C341.39 216.96 331.87 198.73 315 197C312.07 197.17 309.38 197.41 307 198ZM319 207C319.21 207.3 319.7 207.79 320 208C324.98 207.08 332.15 217.97 332.92 223.08C333.69 228.18 339.63 244.65 335 249C333.98 250.98 333.28 246.7 333 246C332.12 243.78 331.18 241.92 330 240C317.56 225.87 307.51 243.66 303 252C302.4 253.72 301.29 255.84 301 258C300.9 264.45 300.31 277.35 304.78 283.22C309.24 289.1 302.88 297.4 296 296C285.49 293.86 281.77 275.91 281 268C280.88 268.98 281.1 270.01 281 271C279.44 268.36 279.73 262.23 280 259C280.27 255.77 278.33 247.86 282 249C282.15 248.55 281.94 247.49 282 247C280.18 243.22 281.99 238.43 284 235C284.77 233.68 285.35 232.52 286 231C287.17 225.81 291.39 216.61 296.25 212.25C301.11 207.89 313.89 199.77 319 207Z" fill="#43210A" style="fill:#43210A;fill:color(display-p3 0.2627 0.1294 0.0392);fill-opacity:1;"/>
<path d="M279 228C281.08 224.27 284.73 218.71 286.7 214.7C288.67 210.69 293.81 206.51 296.92 203.92C300.03 201.33 308.54 197.37 307 198C292.24 201.66 283.92 214.68 279 228Z" fill="#2E0E03" style="fill:#2E0E03;fill:color(display-p3 0.1804 0.0549 0.0118);fill-opacity:1;"/>
<path d="M414 202C414 208.15 413.51 214.19 413 220C415.66 221.57 412.41 226.36 415 228C415.44 218.38 414.86 207.9 414 199C414 200 414 201 414 202Z" fill="#2F0B01" style="fill:#2F0B01;fill:color(display-p3 0.1843 0.0431 0.0039);fill-opacity:1;"/>
<path d="M424 236C425.09 224.76 425.1 211.31 424 200C424 212 424 224 424 236Z" fill="#75420C" style="fill:#75420C;fill:color(display-p3 0.4588 0.2588 0.0471);fill-opacity:1;"/>
<path d="M609 225C609.99 225.23 613.89 214.36 616.75 211.75C619.62 209.15 627.61 204.45 628 202C626.23 205.55 619.85 207.41 616.25 211.25C612.64 215.08 611.28 220.71 609 225Z" fill="#210803" style="fill:#210803;fill:color(display-p3 0.1294 0.0314 0.0118);fill-opacity:1;"/>
<path d="M87 279C86.66 275.07 87 270.95 87 267C87 263.33 87 259.67 87 256C87 244 87 232 87 220C87 214.33 87 208.67 87 203C85.87 214.63 85.35 228.59 86 241C86.65 253.41 84.13 267.46 87 279Z" fill="#14010A" style="fill:#14010A;fill:color(display-p3 0.0784 0.0039 0.0392);fill-opacity:1;"/>
<path d="M286 231C291.12 218.96 302.93 200.51 319 207C313.89 199.77 301.11 207.89 296.25 212.25C291.39 216.61 287.17 225.81 286 231Z" fill="#2A0E05" style="fill:#2A0E05;fill:color(display-p3 0.1647 0.0549 0.0196);fill-opacity:1;"/>
<path d="M286 231C285.35 232.52 284.77 233.68 284 235C282.76 238.37 282.43 243.38 282 247C281.94 247.49 282.15 248.55 282 249C280.16 254.33 280.44 262.21 281 268C281.77 275.91 285.49 293.86 296 296C299.44 295.83 302.77 289.03 307 290C300.12 280.78 299.79 269.03 301 258C301.29 255.84 302.4 253.72 303 252C306.99 240.48 319.84 223.42 330 240C331.18 241.92 332.12 243.78 333 246C332.88 244.46 334.09 240.38 334 238C333.53 225.68 330.23 215.21 320 208C319.7 207.79 319.21 207.3 319 207C302.93 200.51 291.12 218.96 286 231Z" fill="#F7EAD1" style="fill:#F7EAD1;fill:color(display-p3 0.9686 0.9176 0.8196);fill-opacity:1;"/>
<path d="M320 208C330.23 215.21 333.53 225.68 334 238C334.33 240.33 336.47 246.14 335 249C339.63 244.65 333.69 228.18 332.92 223.08C332.15 217.97 324.98 207.08 320 208Z" fill="#260B03" style="fill:#260B03;fill:color(display-p3 0.1490 0.0431 0.0118);fill-opacity:1;"/>
<path d="M547 265C549.65 252.94 548.88 237.86 560.25 229.25C571.63 220.64 587.78 224.23 584 207C584.45 224.16 568.73 219.54 558.25 229.25C547.77 238.96 547 251.31 547 265Z" fill="#270D05" style="fill:#270D05;fill:color(display-p3 0.1529 0.0510 0.0196);fill-opacity:1;"/>
<path d="M607 225C603.62 222.76 599.62 222.51 596 221C595.89 216.92 597.64 212.89 598 209C596.56 209.06 597.26 207.08 596 207C597.43 210.23 593.1 220.05 595.78 222.22C598.46 224.4 605.03 225.78 607 225Z" fill="#2A0E05" style="fill:#2A0E05;fill:color(display-p3 0.1647 0.0549 0.0196);fill-opacity:1;"/>
<path d="M632 245C628.16 240.15 624.04 234.8 618 232C621.13 219.67 631.98 208.2 646 211C632.14 205.54 618.4 219.73 617 233C623.15 234.28 628.02 243.65 632 245Z" fill="#2D1209" style="fill:#2D1209;fill:color(display-p3 0.1765 0.0706 0.0353);fill-opacity:1;"/>
<path d="M163 241C163 244.67 163 248.33 163 252C163 253.99 162.88 256.02 163 258C163.45 242.55 166.33 224.95 169 211C165.3 220.8 163 230.17 163 241Z" fill="#280801" style="fill:#280801;fill:color(display-p3 0.1569 0.0314 0.0039);fill-opacity:1;"/>
<path d="M632 245C632.78 245.27 633.24 245.7 634 246C636.49 245.11 637.21 237.86 640.25 236.25C643.29 234.64 644.23 229.46 647.75 227.75C651.27 226.04 654.16 222.31 658 221C657.38 215.65 651.64 212.93 647 212C646.65 211.89 646.26 211.24 646 211C631.98 208.2 621.13 219.67 618 232C624.04 234.8 628.16 240.15 632 245Z" fill="#F7EAD2" style="fill:#F7EAD2;fill:color(display-p3 0.9686 0.9176 0.8235);fill-opacity:1;"/>
<path d="M647 212C651.64 212.93 657.38 215.65 658 221C654.16 222.31 651.27 226.04 647.75 227.75C644.23 229.46 643.29 234.64 640.25 236.25C637.21 237.86 636.49 245.11 634 246C639.99 238.66 649.05 226.12 660 221C657.58 215.73 652.34 210.57 647 212Z" fill="#2C1107" style="fill:#2C1107;fill:color(display-p3 0.1725 0.0667 0.0275);fill-opacity:1;"/>
<path d="M219 233C220.41 226.15 219.3 221.26 217 216C218.22 221.58 219.49 226.94 219 233Z" fill="#290F06" style="fill:#290F06;fill:color(display-p3 0.1608 0.0588 0.0235);fill-opacity:1;"/>
<path d="M188 247C188.37 245.56 191.36 238.21 192.22 233.22C193.09 228.24 195.56 224.57 199.31 220.31C203.05 216.04 209.37 219.53 212.25 222.75C215.12 225.98 214.51 234.54 218 236C214.52 232.18 216.5 220.27 209.07 217.93C201.64 215.58 196.37 220.05 193.31 226.31C190.24 232.56 188.6 240.18 188 247Z" fill="#270D05" style="fill:#270D05;fill:color(display-p3 0.1529 0.0510 0.0196);fill-opacity:1;"/>
<path d="M87 256C87 255.96 88 256 88 256C88 244.03 88.09 231.26 87 220C87 232 87 244 87 256Z" fill="#DDA939" style="fill:#DDA939;fill:color(display-p3 0.8667 0.6627 0.2235);fill-opacity:1;"/>
<path d="M696 289C699.15 284.42 699.8 278.22 701 273C701.17 272.27 701.91 271.36 702 271C704.45 250.29 702.41 225.89 679 220C687.18 223.33 692.3 227.87 697.23 235.77C702.16 243.67 700.7 254.31 701 263C701.3 271.69 694.27 282.03 696 289Z" fill="#2A0E05" style="fill:#2A0E05;fill:color(display-p3 0.1647 0.0549 0.0196);fill-opacity:1;"/>
<path d="M639 270C635.41 256.07 646.89 242.98 656.7 234.7C666.51 226.42 688.4 230.27 689 246C695.1 238.19 676.64 227.48 669 229C661.36 230.53 649.04 236.42 645.3 244.3C641.56 252.18 632.76 264.35 639 270Z" fill="#290E04" style="fill:#290E04;fill:color(display-p3 0.1608 0.0549 0.0157);fill-opacity:1;"/>
<path d="M639 270C639 269.99 639.92 271.79 640 272C647.49 291.88 670.18 264.96 676 258C676 259 676 260 676 261C676 261 676.18 261.57 676 262C671.37 273.22 668.32 283.11 656 288C646.58 293.24 632.75 285.78 629 276C625.65 277.22 622.51 279.05 619 280C614.53 281.21 608.83 281.6 604 281C603.02 280.88 602.52 280.14 602 280C592.47 277.47 582.4 271.69 580 261C591.68 268.76 617.76 279.74 624 261C623.73 258.51 623.33 256.32 623 254C618.53 240.58 599.65 232.43 587 232C576.08 233.32 565.37 235.92 562 248C554.56 274.67 573.06 298.52 591 316C586 315.49 581.58 312.94 577 311C569.41 307.89 569.46 313.17 569 320C569.99 329.47 579.2 335.46 586 341C586.28 341.23 586.78 341.71 587 342C594.84 345.86 603.03 348.66 612 349C615.6 349.14 619.41 349.24 623 349C625.61 348.82 628.47 348.66 631 348C631.21 347.7 631.67 347.17 632 347C637.99 343.9 644.15 340.57 645 333C636.44 332.8 626.14 334.46 620 328C624.69 326.43 630.71 326.58 636 326C636.17 325.96 637.49 325.13 638 325C651.78 321.47 665.33 312.82 674 301C674.22 300.7 674.68 300.2 675 300C679.52 293.14 683.85 284.83 685.98 276.98C688.1 269.12 693.64 255.12 689 247C689 247 689.02 246.5 689 246C688.4 230.27 666.51 226.42 656.7 234.7C646.89 242.98 635.41 256.07 639 270ZM610 317C604.7 309.3 600.59 299.04 605 290C609.57 297.08 610.3 309.11 610 317Z" fill="#F7EAD1" style="fill:#F7EAD1;fill:color(display-p3 0.9686 0.9176 0.8196);fill-opacity:1;"/>
<path d="M587 232C599.65 232.43 618.53 240.58 623 254C621.05 240.33 599.79 230.45 587 232Z" fill="#2D1308" style="fill:#2D1308;fill:color(display-p3 0.1765 0.0745 0.0314);fill-opacity:1;"/>
<path d="M508 235C508 240 508 245 508 250C508.92 253.3 505.94 260.07 510 261C508.2 252.93 509.11 241.2 510 232C509.27 232.42 508.15 234.39 508 235Z" fill="#2E0B01" style="fill:#2E0B01;fill:color(display-p3 0.1804 0.0431 0.0039);fill-opacity:1;"/>
<path d="M303 252C307.51 243.66 317.56 225.87 330 240C319.84 223.42 306.99 240.48 303 252Z" fill="#280E05" style="fill:#280E05;fill:color(display-p3 0.1569 0.0549 0.0196);fill-opacity:1;"/>
<path d="M413 281C413 288.33 413 295.67 413 303C413 307.08 412.32 311.66 412 315C412 323 412 331 412 339C412 341.67 412 344.33 412 347C412 352.39 411.45 358.36 411 363C411 368.67 411 374.33 411 380C411 418.12 409 455.78 409 494C409 501.56 409.68 509.47 409 517C413.95 512.2 408.39 497.18 410 490C411.62 482.82 409.85 475.09 411 467C412.15 458.91 410 447.35 411 439C412 430.65 412.52 422.94 412 414C411.48 405.06 412.45 395.49 412.94 387.08C413.42 378.67 412.61 370.97 413 362C413.39 353.03 412.39 342.94 413 334C413.61 325.06 414.12 316.06 414 307C413.88 297.94 413.71 287.79 414 279C414.29 270.21 412.81 259.63 414.67 251.67C416.53 243.71 413.92 237.74 413 233C413 249 413 265 413 281Z" fill="#2C0C01" style="fill:#2C0C01;fill:color(display-p3 0.1725 0.0471 0.0039);fill-opacity:1;"/>
<path d="M282 247C282.43 243.38 282.76 238.37 284 235C281.99 238.43 280.18 243.22 282 247Z" fill="#260B05" style="fill:#260B05;fill:color(display-p3 0.1490 0.0431 0.0196);fill-opacity:1;"/>
<path d="M278 289C274.11 272.47 274.16 252.85 276 236C271.35 252.66 271.12 273.06 278 289Z" fill="#2F1002" style="fill:#2F1002;fill:color(display-p3 0.1843 0.0627 0.0078);fill-opacity:1;"/>
<path d="M333 246C333.28 246.7 333.98 250.98 335 249C336.47 246.14 334.33 240.33 334 238C334.09 240.38 332.88 244.46 333 246Z" fill="#896B4D" style="fill:#896B4D;fill:color(display-p3 0.5373 0.4196 0.3020);fill-opacity:1;"/>
<path d="M163 252C163 248.33 163 244.67 163 241C162.67 244.39 162.67 248.54 163 252Z" fill="#8F6517" style="fill:#8F6517;fill:color(display-p3 0.5608 0.3961 0.0902);fill-opacity:1;"/>
<path d="M191 276C185.8 274.7 180.63 273.54 175 274C171.58 266.63 170 259.38 170 251C167.43 249.74 170.49 245.33 168 244C167.74 249.73 169.22 257.84 170.01 262.99C170.79 268.15 172.62 274.67 177.98 275.02C183.33 275.37 190.17 278.9 191 276Z" fill="#280D04" style="fill:#280D04;fill:color(display-p3 0.1569 0.0510 0.0157);fill-opacity:1;"/>
<path d="M675 300C680.05 296.88 681.62 289.97 684.23 285.23C686.84 280.49 689.4 271.84 690.02 267.02C690.65 262.21 693.64 248.24 689 247C693.64 255.12 688.1 269.12 685.98 276.98C683.85 284.83 679.52 293.14 675 300Z" fill="#2B1108" style="fill:#2B1108;fill:color(display-p3 0.1686 0.0667 0.0314);fill-opacity:1;"/>
<path d="M281 268C280.44 262.21 280.16 254.33 282 249C278.33 247.86 280.27 255.77 280 259C279.73 262.23 279.44 268.36 281 271C281.1 270.01 280.88 268.98 281 268Z" fill="#1D0402" style="fill:#1D0402;fill:color(display-p3 0.1137 0.0157 0.0078);fill-opacity:1;"/>
<path d="M577 311C581.58 312.94 586 315.49 591 316C573.06 298.52 554.56 274.67 562 248C554.75 257.82 560.73 275.76 565.7 286.3C570.67 296.84 578.88 303.84 586 313C583.31 311.5 578.82 311.44 577 311Z" fill="#2A0F05" style="fill:#2A0F05;fill:color(display-p3 0.1647 0.0588 0.0196);fill-opacity:1;"/>
<path d="M87 267C87 266.96 88 267 88 267C88 263.33 88 259.67 88 256C88 256 87 255.96 87 256C87 259.67 87 263.33 87 267Z" fill="#A3760D" style="fill:#A3760D;fill:color(display-p3 0.6392 0.4627 0.0510);fill-opacity:1;"/>
<path d="M296 296C302.88 297.4 309.24 289.1 304.78 283.22C300.31 277.35 300.9 264.45 301 258C299.79 269.03 300.12 280.78 307 290C302.77 289.03 299.44 295.83 296 296Z" fill="#280E04" style="fill:#280E04;fill:color(display-p3 0.1569 0.0549 0.0157);fill-opacity:1;"/>
<path d="M640 272C639.81 278.18 647 280.75 652.92 279.92C658.85 279.1 661.9 272.96 665.75 270.75C669.6 268.54 673.45 258.9 676 261C676 260 676 259 676 258C670.18 264.96 647.49 291.88 640 272Z" fill="#2B1208" style="fill:#2B1208;fill:color(display-p3 0.1686 0.0706 0.0314);fill-opacity:1;"/>
<path d="M602 280C596.84 277.36 585.74 272.26 582 264C589.47 268.02 598.24 271.46 606.78 272.22C615.32 272.98 625.03 270.4 624 261C617.76 279.74 591.68 268.76 580 261C582.4 271.69 592.47 277.47 602 280Z" fill="#2C1106" style="fill:#2C1106;fill:color(display-p3 0.1725 0.0667 0.0235);fill-opacity:1;"/>
<path d="M507 281C507.39 282.87 506.13 285.86 508 287C508.46 278.89 507.97 267.01 507 262C507 268.32 506.75 274.69 507 281Z" fill="#280600" style="fill:#280600;fill:color(display-p3 0.1569 0.0235 0.0000);fill-opacity:1;"/>
<path d="M656 288C668.32 283.11 671.37 273.22 676 262C671.79 263.66 671.21 273.87 667.75 277.75C664.3 281.64 658.7 286.54 656 288Z" fill="#2A1007" style="fill:#2A1007;fill:color(display-p3 0.1647 0.0627 0.0275);fill-opacity:1;"/>
<path d="M87 279C87.11 280.26 87.84 281.27 88 282C88 277 88 272 88 267C88 267 87 266.96 87 267C87 270.95 86.66 275.07 87 279Z" fill="#7D4E03" style="fill:#7D4E03;fill:color(display-p3 0.4902 0.3059 0.0118);fill-opacity:1;"/>
<path d="M547 268C547.41 270.74 548.19 274.32 549 277C550.77 272.35 548.26 269.6 547 268Z" fill="#250903" style="fill:#250903;fill:color(display-p3 0.1451 0.0353 0.0118);fill-opacity:1;"/>
<path d="M423 321C423 310.67 423 300.33 423 290C423 285.35 423.19 280.65 423 276C422.61 274.13 423.87 271.14 422 270C425.53 285.63 416.85 306.53 423 321Z" fill="#1C040B" style="fill:#1C040B;fill:color(display-p3 0.1098 0.0157 0.0431);fill-opacity:1;"/>
<path d="M701 273C701.37 272.07 701.83 272.42 702 271C701.91 271.36 701.17 272.27 701 273Z" fill="#9E856C" style="fill:#9E856C;fill:color(display-p3 0.6196 0.5216 0.4235);fill-opacity:1;"/>
<path d="M423 290C423.39 286.01 424 280.74 424 276C424 276 423 275.98 423 276C423.19 280.65 423 285.35 423 290Z" fill="#8F5300" style="fill:#8F5300;fill:color(display-p3 0.5608 0.3255 0.0000);fill-opacity:1;"/>
<path d="M162 285C156.4 283.58 166.68 278.23 167 277C162.46 277.81 158.58 281.38 158 286C159.56 286.62 160.72 285.27 162 285Z" fill="#2B0C05" style="fill:#2B0C05;fill:color(display-p3 0.1686 0.0471 0.0196);fill-opacity:1;"/>
<path d="M562 304C564.41 299.66 560.57 296.16 556.92 292.08C553.26 288 553.75 281.47 550 278C551.33 282.71 553.37 288.09 555.7 292.3C558.03 296.51 563.3 299.5 562 304Z" fill="#270D05" style="fill:#270D05;fill:color(display-p3 0.1529 0.0510 0.0196);fill-opacity:1;"/>
<path d="M604 281C608.83 281.6 614.53 281.21 619 280C615.46 280.47 608.11 280.59 604 281Z" fill="#180302" style="fill:#180302;fill:color(display-p3 0.0941 0.0118 0.0078);fill-opacity:1;"/>
<path d="M412 303C412 302.96 413 303 413 303C413 295.67 413 288.33 413 281C412.36 287.6 412 295.64 412 303Z" fill="#90671D" style="fill:#90671D;fill:color(display-p3 0.5647 0.4039 0.1137);fill-opacity:1;"/>
<path d="M518 331C518 317.97 519.27 305.25 519 292C518.56 289.8 519.96 286.45 518 285C517.85 300.5 516.56 316.13 518 331Z" fill="#290D05" style="fill:#290D05;fill:color(display-p3 0.1608 0.0510 0.0196);fill-opacity:1;"/>
<path d="M610 317C610.3 309.11 609.57 297.08 605 290C600.59 299.04 604.7 309.3 610 317Z" fill="#361607" style="fill:#361607;fill:color(display-p3 0.2118 0.0863 0.0275);fill-opacity:1;"/>
<path d="M664 327C677.45 319.34 690.92 305.14 695 290C689.34 295.43 687.53 304.82 681.75 310.75C675.97 316.68 670.37 322.02 664 327Z" fill="#280D05" style="fill:#280D05;fill:color(display-p3 0.1569 0.0510 0.0196);fill-opacity:1;"/>
<path d="M212 336C211.94 334.56 213.92 335.26 214 334C207.15 333.67 199.68 331.22 194.92 326.08C190.16 320.95 189.28 310.81 192.75 304.75C196.21 298.68 200.57 298.73 205 295C196.05 298.81 185.56 307.72 189.22 318.78C192.89 329.84 202.02 334.61 212 336Z" fill="#361406" style="fill:#361406;fill:color(display-p3 0.2118 0.0784 0.0235);fill-opacity:1;"/>
<path d="M506 304C506.58 308.18 504.79 313.58 507 317C507.65 310.37 506.57 302.92 506 297C506 299.33 506 301.67 506 304Z" fill="#260600" style="fill:#260600;fill:color(display-p3 0.1490 0.0235 0.0000);fill-opacity:1;"/>
<path d="M201 317C197.75 302.78 213.9 301.19 224 303C220.89 301.74 210.44 300.12 205.08 303.08C199.73 306.05 199.07 314.49 201 317Z" fill="#2B0B02" style="fill:#2B0B02;fill:color(display-p3 0.1686 0.0431 0.0078);fill-opacity:1;"/>
<path d="M638 325C643.41 325.3 655.3 320.93 659.75 316.75C664.2 312.58 674.99 306.38 674 301C665.33 312.82 651.78 321.47 638 325Z" fill="#2F1209" style="fill:#2F1209;fill:color(display-p3 0.1843 0.0706 0.0353);fill-opacity:1;"/>
<path d="M412 315C412.32 311.66 413 307.08 413 303C413 303 412 302.96 412 303C412 307 412 311 412 315Z" fill="#5D3502" style="fill:#5D3502;fill:color(display-p3 0.3647 0.2078 0.0078);fill-opacity:1;"/>
<path d="M89 400C89 395.67 89 391.33 89 387C89 377.67 89 368.33 89 359C88.7 355.92 88 351.75 88 348C88 343.67 88 339.33 88 335C88 331 88 327 88 323C88 318.33 88 313.67 88 309C85.75 342.76 87.06 379.39 89 413C89 408.67 89 404.33 89 400Z" fill="#220603" style="fill:#220603;fill:color(display-p3 0.1333 0.0235 0.0118);fill-opacity:1;"/>
<path d="M553 362C561.17 363.58 573.08 354.85 575 346C564.57 340.3 556.57 326.55 557 315C555.53 327.98 563.16 340.65 574 347C570.1 354.89 561.36 360.42 553 362Z" fill="#2B1006" style="fill:#2B1006;fill:color(display-p3 0.1686 0.0627 0.0235);fill-opacity:1;"/>
<path d="M88 323C88 327 88 331 88 335C88.36 338.73 89 343.59 89 348C89 351.67 89 355.33 89 359C89 368.33 89 377.67 89 387C89.36 390.73 90 395.59 90 400C90 405.33 90 410.67 90 416C90 430.27 91 443.76 91 458C93.49 411.11 88.99 365.18 90 318C89.18 318.89 88.16 321.95 88 323Z" fill="#F4D773" style="fill:#F4D773;fill:color(display-p3 0.9569 0.8431 0.4510);fill-opacity:1;"/>
<path d="M273 349C288.97 347.38 305.8 338.73 319 328C315.27 326.97 309.85 324.95 308 322C310.44 319.59 314.99 322.55 317 320C305.18 316.63 305.26 328.03 316 328C303.99 338.43 288.18 344.76 273 349Z" fill="#331204" style="fill:#331204;fill:color(display-p3 0.2000 0.0706 0.0157);fill-opacity:1;"/>
<path d="M273 349C237.61 359.09 197.16 352.17 172 324C172.26 334.98 179.57 345.86 191.77 351.23C203.97 356.6 202.98 372.44 206.07 384.93C209.16 397.41 213.11 408.17 221.25 418.75C229.39 429.33 241.97 432.19 255 433C268.03 433.81 279.69 427.69 289 419C299.05 407.13 305.1 394.5 313 382C320.32 367.25 324.07 350.21 328 334C332.62 335.11 335.83 340.23 341 340C339.95 328.68 327.38 321.07 317 320C314.99 322.55 310.44 319.59 308 322C309.85 324.95 315.27 326.97 319 328C305.8 338.73 288.97 347.38 273 349ZM303 385C298.86 397.03 286.92 408.14 276.25 415.25C265.58 422.37 241.99 425.33 233.25 412.75C224.51 400.18 251.17 387.53 261 388C258.82 391.6 255.74 394.77 255 399C267.72 387.28 285.37 378.78 303 385Z" fill="#43210A" style="fill:#43210A;fill:color(display-p3 0.2627 0.1294 0.0392);fill-opacity:1;"/>
<path d="M586 341C579.2 335.46 569.99 329.47 569 320C568.6 325.92 577.98 342.48 586 341Z" fill="#280D04" style="fill:#280D04;fill:color(display-p3 0.1569 0.0510 0.0157);fill-opacity:1;"/>
<path d="M505 333C505.58 337.18 503.79 342.58 506 346C506.56 338.04 505.7 329.24 505 322C505 325.67 505 329.33 505 333Z" fill="#270600" style="fill:#270600;fill:color(display-p3 0.1529 0.0235 0.0000);fill-opacity:1;"/>
<path d="M422 356C422 363 422 370 422 377C422 382.67 422 388.33 422 394C422 399 422 404 422 409C422.55 412.51 420.84 417.24 423 420C420.82 404.44 425.47 385.92 424 371C422.53 356.08 428.63 336.25 423 323C423 333.98 422.99 345.72 422 356Z" fill="#F0BD52" style="fill:#F0BD52;fill:color(display-p3 0.9412 0.7412 0.3216);fill-opacity:1;"/>
<path d="M632 347C635.71 348.11 646.6 340.59 645.64 334.7C644.68 328.8 627.67 334.51 624 329C627.85 327.73 634.62 327.51 636 326C630.71 326.58 624.69 326.43 620 328C626.14 334.46 636.44 332.8 645 333C644.15 340.57 637.99 343.9 632 347Z" fill="#260A04" style="fill:#260A04;fill:color(display-p3 0.1490 0.0392 0.0157);fill-opacity:1;"/>
<path d="M88 348C88 347.96 89 348 89 348C89 343.59 88.36 338.73 88 335C88 339.33 88 343.67 88 348Z" fill="#9F773A" style="fill:#9F773A;fill:color(display-p3 0.6235 0.4667 0.2275);fill-opacity:1;"/>
<path d="M411 380C411 374.33 411 368.67 411 363C411 357.61 411.55 351.64 412 347C412 344.33 412 341.67 412 339C410.56 339.06 411.26 337.08 410 337C409.9 351.25 409.69 366.47 411 380Z" fill="#F3DB79" style="fill:#F3DB79;fill:color(display-p3 0.9529 0.8588 0.4745);fill-opacity:1;"/>
<path d="M517 355C517 351.34 517.15 347.65 517 344C516.61 342.13 517.87 339.14 516 338C517.23 343.06 513.93 350.85 517 355Z" fill="#150100" style="fill:#150100;fill:color(display-p3 0.0824 0.0039 0.0000);fill-opacity:1;"/>
<path d="M643 355C649.37 351.1 653.18 346.33 655 339C653.48 343.04 648.13 350.79 643 355Z" fill="#210701" style="fill:#210701;fill:color(display-p3 0.1294 0.0275 0.0039);fill-opacity:1;"/>
<path d="M422 377C422 370 422 363 422 356C421.39 350.83 423.25 344.42 421 340C420.58 346.21 421.55 353.94 421 360C420.45 366.06 421.55 373.65 422 377Z" fill="#2A0700" style="fill:#2A0700;fill:color(display-p3 0.1647 0.0275 0.0000);fill-opacity:1;"/>
<path d="M631 348C628.47 348.66 625.61 348.82 623 349C619.25 349.67 615.65 349.52 612 349C603.03 348.66 594.84 345.86 587 342C591 347.13 601.02 349.24 606.98 350.02C612.93 350.81 627.02 353.63 631 348Z" fill="#290D05" style="fill:#290D05;fill:color(display-p3 0.1608 0.0510 0.0196);fill-opacity:1;"/>
<path d="M411 363C411.45 358.36 412 352.39 412 347C411.55 351.64 411 357.61 411 363Z" fill="#865C29" style="fill:#865C29;fill:color(display-p3 0.5255 0.3608 0.1608);fill-opacity:1;"/>
<path d="M75 348C49.29 363.38 6.78001 389.72 21 425C26.26 424.11 29.5 418.14 35 418C35.09 394.68 56.73 378.2 76 369C73.77 362.51 75.59 354.93 75 348Z" fill="#864617" style="fill:#864617;fill:color(display-p3 0.5255 0.2745 0.0902);fill-opacity:1;"/>
<path d="M89 359C89 355.33 89 351.67 89 348C89 348 88 347.96 88 348C88 351.75 88.7 355.92 89 359Z" fill="#61390A" style="fill:#61390A;fill:color(display-p3 0.3804 0.2235 0.0392);fill-opacity:1;"/>
<path d="M623 349C619.41 349.24 615.6 349.14 612 349C615.65 349.52 619.25 349.67 623 349Z" fill="#64482F" style="fill:#64482F;fill:color(display-p3 0.3922 0.2824 0.1843);fill-opacity:1;"/>
<path d="M551 363C540.64 365.67 525.61 360.95 517 356C515.5 358.19 528.41 362.27 531.98 363.02C535.55 363.78 549.39 365.11 551 363Z" fill="#210703" style="fill:#210703;fill:color(display-p3 0.1294 0.0275 0.0118);fill-opacity:1;"/>
<path d="M597 369C591.22 367.22 584.86 352.35 578.92 359.92C572.98 367.48 567.75 369.99 559.22 373.22C550.7 376.46 540.24 376.78 531 375C527.13 395.86 551.41 394.54 563.99 389.99C576.57 385.45 588.09 379.91 597 369Z" fill="#804416" style="fill:#804416;fill:color(display-p3 0.5020 0.2667 0.0863);fill-opacity:1;"/>
<path d="M620 361C626.46 359.63 631.86 360.71 638 358C633.75 358.98 624.59 358.47 620 361Z" fill="#260B03" style="fill:#260B03;fill:color(display-p3 0.1490 0.0431 0.0118);fill-opacity:1;"/>
<path d="M556 406C570.01 403.37 581.34 397.73 593.3 390.3C605.27 382.88 610.2 372.28 618 362C605.59 381.91 580.62 403.5 554 404C554.11 404.54 555.7 405.94 556 406Z" fill="#2C1107" style="fill:#2C1107;fill:color(display-p3 0.1725 0.0667 0.0275);fill-opacity:1;"/>
<path d="M50 412C54.07 399.84 64.6 387.69 77 384C77 394.67 77 405.33 77 416C69.63 411.13 59.69 409.68 51 412C57.04 416.71 64.84 409.5 72.77 415.23C80.71 420.96 78.42 406.01 78 400C77.58 393.99 79.17 379.95 72.23 384.23C65.29 388.51 61.53 391.44 57.75 395.75C53.98 400.07 46.87 408.98 50 412Z" fill="#2C1005" style="fill:#2C1005;fill:color(display-p3 0.1725 0.0627 0.0196);fill-opacity:1;"/>
<path d="M289 419C300.96 407.83 307.07 396.4 313 382C305.1 394.5 299.05 407.13 289 419Z" fill="#300F05" style="fill:#300F05;fill:color(display-p3 0.1882 0.0588 0.0196);fill-opacity:1;"/>
<path d="M303 385C285.37 378.78 267.72 387.28 255 399C255.74 394.77 258.82 391.6 261 388C251.17 387.53 224.51 400.18 233.25 412.75C241.99 425.33 265.58 422.37 276.25 415.25C286.92 408.14 298.86 397.03 303 385Z" fill="#DC6E2E" style="fill:#DC6E2E;fill:color(display-p3 0.8627 0.4314 0.1804);fill-opacity:1;"/>
<path d="M50 412C50 412 50.56 412.16 51 412C59.69 409.68 69.63 411.13 77 416C77 405.33 77 394.67 77 384C64.6 387.69 54.07 399.84 50 412Z" fill="#F6EAD3" style="fill:#F6EAD3;fill:color(display-p3 0.9647 0.9176 0.8275);fill-opacity:1;"/>
<path d="M89 400C89 400 90 400.04 90 400C90 395.59 89.36 390.73 89 387C89 391.33 89 395.67 89 400Z" fill="#A1772B" style="fill:#A1772B;fill:color(display-p3 0.6314 0.4667 0.1686);fill-opacity:1;"/>
<path d="M419 495C419 466.32 421 437.87 421 409C421 404.07 420.56 398.91 421 394C421.2 394.14 419.17 407.85 420 413C420.83 418.15 418.72 425.82 419 432C419.28 438.18 418.78 447.3 419 454C419.22 460.7 418.29 468.27 418 475C417.71 481.73 418.42 488.99 419 495Z" fill="#310E01" style="fill:#310E01;fill:color(display-p3 0.1922 0.0549 0.0039);fill-opacity:1;"/>
<path d="M421 409C421 409 422 409.04 422 409C422 404 422 399 422 394C422 394 421.35 394.23 421 394C420.56 398.91 421 404.07 421 409Z" fill="#7C4506" style="fill:#7C4506;fill:color(display-p3 0.4863 0.2706 0.0235);fill-opacity:1;"/>
<path d="M516 399C520.1 401.12 524.7 401.69 529 403C528.85 402.93 517.91 396.09 516 399Z" fill="#291007" style="fill:#291007;fill:color(display-p3 0.1608 0.0627 0.0275);fill-opacity:1;"/>
<path d="M515 422C515 417.67 515 413.33 515 409C514.5 406.15 516.08 402.1 514 400C513.4 407.3 514.36 415.42 515 422Z" fill="#180101" style="fill:#180101;fill:color(display-p3 0.0941 0.0039 0.0039);fill-opacity:1;"/>
<path d="M542 406C545.63 406.25 549.36 406 553 406C549.38 405.21 545.47 405.9 542 406Z" fill="#180300" style="fill:#180300;fill:color(display-p3 0.0941 0.0118 0.0000);fill-opacity:1;"/>
<path d="M93 492C91.96 488.98 92 486.32 92 483C91.67 479.6 91 475.08 91 471C91 466.67 91 462.33 91 458C91 443.76 90 430.27 90 416C89.43 421.85 88.43 430.49 89 437C89.57 443.52 88.36 451.94 89 458C89.64 464.06 89.47 471.84 89.22 476.78C88.97 481.72 90.78 492 93 492Z" fill="#321004" style="fill:#321004;fill:color(display-p3 0.1961 0.0627 0.0157);fill-opacity:1;"/>
<path d="M37 428C43.49 425.3 52.7 422.23 60 423C61.45 423.67 53.21 420.96 49.02 423.02C44.84 425.09 40.41 424.44 37 428Z" fill="#250C06" style="fill:#250C06;fill:color(display-p3 0.1451 0.0471 0.0235);fill-opacity:1;"/>
<path d="M37 428C36.75 428.26 36.3 428.79 36 429C25.67 436.27 5.87002 451.43 14 467C14.89 468.18 19.37 472.45 21 472C24.35 455.1 40.25 443.3 55 437C55.8 436.66 55.86 436.29 57 436C59.93 435.25 68.87 435.45 71 434C77.52 429.58 62.01 423.21 60 423C52.7 422.23 43.49 425.3 37 428Z" fill="#F6EAD2" style="fill:#F6EAD2;fill:color(display-p3 0.9647 0.9176 0.8235);fill-opacity:1;"/>
<path d="M508 497C514.42 487.68 512.09 475.17 513 464C513.91 452.83 514.06 439.24 515 428C513.17 427.85 514.67 425.24 513 425C514.39 433.56 511.51 442.84 512 451C512.49 459.16 509.92 468.27 511 476C512.08 483.73 506.48 491.17 508 497Z" fill="#270C03" style="fill:#270C03;fill:color(display-p3 0.1529 0.0471 0.0118);fill-opacity:1;"/>
<path d="M14 467C5.87003 451.43 25.67 436.27 36 429C30.01 427.76 22.96 437.17 18.3 442.3C13.65 447.44 9.07003 460.5 14 467Z" fill="#2D1208" style="fill:#2D1208;fill:color(display-p3 0.1765 0.0706 0.0314);fill-opacity:1;"/>
<path d="M57 436C59.41 436.13 70.93 433.98 71 434C68.87 435.45 59.93 435.25 57 436Z" fill="#200702" style="fill:#200702;fill:color(display-p3 0.1255 0.0275 0.0078);fill-opacity:1;"/>
<path d="M3 449C3.73 447.57 10.18 438.93 10 436C6.41 439.73 4.61 444.18 3 449Z" fill="#270D06" style="fill:#270D06;fill:color(display-p3 0.1529 0.0510 0.0235);fill-opacity:1;"/>
<path d="M21 472C24.62 471.01 25.89 459.57 29.75 456.75C33.61 453.94 38.44 448.11 42.25 445.25C46.06 442.39 53.73 439.05 55 437C40.25 443.3 24.35 455.1 21 472Z" fill="#2B1007" style="fill:#2B1007;fill:color(display-p3 0.1686 0.0627 0.0275);fill-opacity:1;"/>
<path d="M264 451C261.72 451.7 252.29 451.79 250 451C241.44 448.63 231.83 445.98 225 439C226.94 465.51 275.78 468.96 283 445C276.6 446.4 270.28 450.24 264 451Z" fill="#401D09" style="fill:#401D09;fill:color(display-p3 0.2510 0.1137 0.0353);fill-opacity:1;"/>
<path d="M73 443C74.91 443.56 76.98 443.69 79 444C79 446.67 79 449.33 79 452C83.93 444.63 74.9 439.36 68 441C69.06 441.98 71.72 442.63 73 443Z" fill="#240802" style="fill:#240802;fill:color(display-p3 0.1412 0.0314 0.0078);fill-opacity:1;"/>
<path d="M49 449C40.29 454.39 32.54 463.1 30 473C29.83 473.67 29.08 474.7 29 475C27.62 480.37 29.37 487.7 30 493C30.25 493.25 30.89 493.65 31 494C32.46 498.65 33.84 503.6 36 508C36.32 508.19 36.79 508.7 37 509C39.66 512.77 42.46 516.78 44 521C35.09 520.47 27.83 512.57 24 505C21.44 506.51 19.24 509.01 19 512C19.2 512.92 18.95 514.06 19 515C19.73 529.04 32.21 539.18 46.02 541.98C59.84 544.77 73.65 527.23 73 514C78.5 519.75 75.22 528.9 75 536C83.87 536.16 93.05 531.2 97 523C97.52 521.9 97.84 521.21 98 520C86.26 521.04 84.11 503.69 82 495C79.89 486.31 81.73 465.85 80 456C79.83 455.03 79.09 453.59 79 452C79 449.33 79 446.67 79 444C76.98 443.69 74.91 443.56 73 443C64.3 442.11 56.14 444.58 49 449Z" fill="#F7EAD1" style="fill:#F7EAD1;fill:color(display-p3 0.9686 0.9176 0.8196);fill-opacity:1;"/>
<path d="M30 473C32.54 463.1 40.29 454.39 49 449C40.65 452.29 29.44 462.89 30 473Z" fill="#2A0E05" style="fill:#2A0E05;fill:color(display-p3 0.1647 0.0549 0.0196);fill-opacity:1;"/>
<path d="M264 451C259.83 451.5 254.15 451.59 250 451C252.29 451.79 261.72 451.7 264 451Z" fill="#220400" style="fill:#220400;fill:color(display-p3 0.1333 0.0157 0.0000);fill-opacity:1;"/>
<path d="M80 456C81.73 465.85 79.89 486.31 82 495C84.11 503.69 86.26 521.04 98 520C98.32 517.57 89.55 515.14 87.77 510.23C85.99 505.32 82.81 498.94 83 493C83.19 487.06 81.57 477.82 81.99 472.01C82.42 466.2 79.78 455.61 80 456Z" fill="#2C1007" style="fill:#2C1007;fill:color(display-p3 0.1725 0.0627 0.0275);fill-opacity:1;"/>
<path d="M12 533C12.73 527.38 1.50999 508.17 10.75 502.75C20 497.34 25.75 488.1 15.08 481.92C4.39999 475.75 2.01999 467.7 0.99999 457C-0.16001 469.06 6.74999 482.19 19 485C24.45 496.7 10.92 496.9 7.92998 505.93C4.93998 514.95 7.84999 525 12 533Z" fill="#2C1107" style="fill:#2C1107;fill:color(display-p3 0.1725 0.0667 0.0275);fill-opacity:1;"/>
<path d="M92 483C92 478.92 91.33 474.4 91 471C91 475.08 91.67 479.6 92 483Z" fill="#7F5815" style="fill:#7F5815;fill:color(display-p3 0.4980 0.3451 0.0824);fill-opacity:1;"/>
<path d="M30 493C29.37 487.7 27.62 480.37 29 475C27.34 476.27 26.69 489.76 30 493Z" fill="#200703" style="fill:#200703;fill:color(display-p3 0.1255 0.0275 0.0118);fill-opacity:1;"/>
<path d="M36 508C33.84 503.6 32.46 498.65 31 494C30.09 497.42 31.99 505.62 36 508Z" fill="#270C05" style="fill:#270C05;fill:color(display-p3 0.1529 0.0471 0.0196);fill-opacity:1;"/>
<path d="M101 507C96.59 504.3 93.63 498.93 93 494C90.58 499.99 97.56 505.76 101 507Z" fill="#2B0902" style="fill:#2B0902;fill:color(display-p3 0.1686 0.0353 0.0078);fill-opacity:1;"/>
<path d="M408 517C408 517 408.74 517.25 409 517C409.68 509.47 409 501.56 409 494C408.33 500.93 408 509.31 408 517Z" fill="#7D5115" style="fill:#7D5115;fill:color(display-p3 0.4902 0.3176 0.0824);fill-opacity:1;"/>
<path d="M449 542C459.61 536.82 470.49 528.96 480.3 522.3C490.12 515.65 501.68 508.9 507 498C500.7 501.76 496.36 510.67 489.7 514.7C483.03 518.72 475.4 523.82 469.23 528.23C463.05 532.63 452.91 535.45 449 542Z" fill="#2A1006" style="fill:#2A1006;fill:color(display-p3 0.1647 0.0627 0.0235);fill-opacity:1;"/>
<path d="M19 512C19.24 509.01 21.44 506.51 24 505C27.83 512.57 35.09 520.47 44 521C42.46 516.78 39.66 512.77 37 509C35.66 512.37 41.57 516.14 42 520C37.24 516.8 30.61 515.72 27.77 509.23C24.93 502.74 17.36 504.35 19 512Z" fill="#290E04" style="fill:#290E04;fill:color(display-p3 0.1608 0.0549 0.0157);fill-opacity:1;"/>
<path d="M19 515C18.99 528.3 29.73 539.4 44 543C58.27 546.6 74.32 532.03 73 517C77.01 522.27 74.24 530.1 73 536C78.78 540.36 85.7 533.86 90.3 532.3C94.9 530.74 98.99 521.42 97 523C93.05 531.2 83.87 536.16 75 536C75.22 528.9 78.5 519.75 73 514C73.65 527.23 59.84 544.77 46.02 541.98C32.21 539.18 19.73 529.04 19 515Z" fill="#2A0F06" style="fill:#2A0F06;fill:color(display-p3 0.1647 0.0588 0.0235);fill-opacity:1;"/>
<path d="M140 515C136.3 514.47 132.66 514.71 129 514C130.72 514.59 136.45 514.98 140 515Z" fill="#220500" style="fill:#220500;fill:color(display-p3 0.1333 0.0196 0.0000);fill-opacity:1;"/>
<path d="M85 547C92.6 544.84 98.82 542.54 103.75 534.75C108.69 526.96 112.69 523.69 123 526C124.93 527.91 111.05 519.27 108.77 524.77C106.49 530.27 102.46 533.51 98.92 537.92C95.37 542.32 88.49 543.23 85 547Z" fill="#2A0F07" style="fill:#2A0F07;fill:color(display-p3 0.1647 0.0588 0.0275);fill-opacity:1;"/>
<path d="M126 527C148.4 530.13 170.83 533.04 193 537C192.36 540.29 191.45 543.71 191 547C193.55 543.76 195.96 533.85 187 534C178.04 534.15 173.7 531.81 166 531C158.3 530.19 151.96 529.45 145 528C138.04 526.55 132.56 526.66 126 527Z" fill="#290F05" style="fill:#290F05;fill:color(display-p3 0.1608 0.0588 0.0196);fill-opacity:1;"/>
<path d="M68 549C57.92 549.97 48.42 555.08 36.68 551.32C24.94 547.57 22.57 539.71 13 534C18.39 545.04 25.03 546.62 35.78 552.22C46.52 557.83 57.92 552.46 68 549Z" fill="#2E1308" style="fill:#2E1308;fill:color(display-p3 0.1804 0.0745 0.0314);fill-opacity:1;"/>
<path d="M228 546C226.14 554.25 226.36 565.83 228 574C228.19 574.93 228.8 576.54 229 578C229.36 580.64 229.38 589.07 231 591C232.29 591.78 234.88 592.72 236 593C252.7 592.69 264.09 611.52 255 626C255 626 254.77 626.84 255 627C260.19 630.63 262.27 635.39 264 641C265.07 644.47 265.84 647.86 266 652C266.21 651.13 267.82 649.51 267 648C293.84 647.76 321.1 648.02 347 649C345.64 656.06 346.01 663.6 346 671C347.39 670.74 346.78 668.95 347 668C346.63 663.83 347.45 659.42 348 656C348.32 650.02 350.38 644.78 354 640C352.3 638.81 349.88 637.36 350 635C349.42 633.93 348.27 632.46 348 631C346.88 624.97 348.95 619.98 350.92 614.92C352.9 609.87 359.67 609.14 362 606C361.21 589.91 350.75 574.39 345 559C336.19 558.2 327.71 557.22 319 556C308.72 554.56 298.33 552.72 288 551C287.12 550.85 286.44 550.11 286 550C269.73 545.81 250.71 544.9 234 543C232.07 543.53 230.76 541.95 229 542C229.83 543.5 228.19 545.15 228 546Z" fill="#F8EAD1" style="fill:#F8EAD1;fill:color(display-p3 0.9725 0.9176 0.8196);fill-opacity:1;"/>
<path d="M234 543C250.71 544.9 269.73 545.81 286 550C282.69 545.67 267.49 548.07 260.22 545.78C252.95 543.49 241.2 542.51 234 543Z" fill="#270D06" style="fill:#270D06;fill:color(display-p3 0.1529 0.0510 0.0235);fill-opacity:1;"/>
<path d="M426 556C433.45 551.98 440.91 548 448 543C442.37 542.68 431.16 552.27 426 556Z" fill="#270E06" style="fill:#270E06;fill:color(display-p3 0.1529 0.0549 0.0235);fill-opacity:1;"/>
<path d="M228 574C226.36 565.83 226.14 554.25 228 546C227.89 546.15 226.28 554.28 226 560C225.72 565.72 228.09 574.15 228 574Z" fill="#260C06" style="fill:#260C06;fill:color(display-p3 0.1490 0.0471 0.0235);fill-opacity:1;"/>
<path d="M347 545C342.91 544.42 339.13 544.5 335 544C337.13 544.66 342.87 545.07 347 545Z" fill="#290A01" style="fill:#290A01;fill:color(display-p3 0.1608 0.0392 0.0039);fill-opacity:1;"/>
<path d="M72 549C75.79 549.18 80.62 549.54 84 548C80.27 546.71 75.84 548.74 72 549Z" fill="#210903" style="fill:#210903;fill:color(display-p3 0.1294 0.0353 0.0118);fill-opacity:1;"/>
<path d="M384 550C386 550 388 550 390 550C394 550 398 550 402 550C402.5 550 403 550 403 550C403.5 550 404.5 550.02 405 550C398.63 550.04 390.63 548.54 384 550Z" fill="#FDE77F" style="fill:#FDE77F;fill:color(display-p3 0.9922 0.9059 0.4980);fill-opacity:1;"/>
<path d="M191 559C191 563.33 191 567.67 191 572C190.91 578.76 190.79 585.57 192 592C184.94 592.26 178.2 595.87 175 602C181.21 593.81 195.85 596.69 192.93 585.07C190 573.46 193.47 561.25 191 550C191 553 191 556 191 559Z" fill="#260B03" style="fill:#260B03;fill:color(display-p3 0.1490 0.0431 0.0118);fill-opacity:1;"/>
<path d="M288 551C298.33 552.72 308.72 554.56 319 556C317.02 555.35 311.2 552.35 306 552C300.8 551.64 292.91 550.35 288 551Z" fill="#2E1108" style="fill:#2E1108;fill:color(display-p3 0.1804 0.0667 0.0314);fill-opacity:1;"/>
<path d="M403 550C403 550 402.5 550 402 550C398.69 552.45 393.22 550.31 390 550C388 550 386 550 384 550C383 550 382 549.97 381 550C379.75 550.28 377.53 549.4 377 551C381.32 549.8 386.51 553.19 390 552C393.49 550.81 402.75 554.4 403 550Z" fill="#2B0B02" style="fill:#2B0B02;fill:color(display-p3 0.1686 0.0431 0.0078);fill-opacity:1;"/>
<path d="M402 550C398 550 394 550 390 550C393.22 550.31 398.69 552.45 402 550Z" fill="#C29755" style="fill:#C29755;fill:color(display-p3 0.7608 0.5922 0.3333);fill-opacity:1;"/>
<path d="M191 572C191 567.67 191 563.33 191 559C190.61 563.02 190.6 567.91 191 572Z" fill="#6A4830" style="fill:#6A4830;fill:color(display-p3 0.4157 0.2824 0.1882);fill-opacity:1;"/>
<path d="M389 565C393.3 564.61 397.7 565.38 402 565C400.79 564.99 387.51 562.76 389 565Z" fill="#150200" style="fill:#150200;fill:color(display-p3 0.0824 0.0078 0.0000);fill-opacity:1;"/>
<path d="M221 604C221.74 595.35 215.4 589.09 215.33 580.67C215.27 572.25 212.22 562.57 201 566C202.89 580.3 199.53 608.45 221 604Z" fill="#7A4216" style="fill:#7A4216;fill:color(display-p3 0.4784 0.2588 0.0863);fill-opacity:1;"/>
<path d="M519 677C519.46 672.88 519.23 668.14 519 664C515.84 623.78 464.67 609.46 433 626C439.18 607.88 417.5 596.99 402 600C399.77 588.19 390.93 577.8 389 566C386.97 569.5 392.59 577.95 394.23 583.77C395.87 589.59 399.7 596.35 402 602C411.2 599.47 421.24 602.39 428.25 608.75C435.25 615.11 428.34 630.06 438.93 624.93C449.52 619.79 459.4 621.1 469.98 621.02C480.55 620.95 488.14 624.99 496.3 629.7C504.47 634.4 508.71 639.89 513.08 647.92C517.44 655.96 519.13 668.07 519 677Z" fill="#290E06" style="fill:#290E06;fill:color(display-p3 0.1608 0.0549 0.0235);fill-opacity:1;"/>
<path d="M231 591C229.38 589.07 229.36 580.64 229 578C228.9 581.68 228.38 589.41 231 591Z" fill="#250C05" style="fill:#250C05;fill:color(display-p3 0.1451 0.0471 0.0196);fill-opacity:1;"/>
<path d="M393 614C390.6 602.89 385.79 578.43 370 590C374.12 600.64 376.55 620.81 393 614Z" fill="#7A4216" style="fill:#7A4216;fill:color(display-p3 0.4784 0.2588 0.0863);fill-opacity:1;"/>
<path d="M255 626C264.09 611.52 252.7 592.69 236 593C234.75 593.28 232.53 592.4 232 594C238.05 593.55 243.7 595.36 248.75 598.25C253.81 601.13 254.01 605.94 256.67 610.33C259.33 614.72 252.99 623.25 255 626Z" fill="#290E06" style="fill:#290E06;fill:color(display-p3 0.1608 0.0549 0.0235);fill-opacity:1;"/>
<path d="M198 627C193.34 624.32 189.91 620.46 186.7 616.3C183.48 612.15 184.67 601.04 192 602C184.92 599.37 181.54 610.38 185.08 615.92C188.62 621.46 192.97 625.02 198 627Z" fill="#290F05" style="fill:#290F05;fill:color(display-p3 0.1608 0.0588 0.0196);fill-opacity:1;"/>
<path d="M198 627C200.94 630.28 207.58 628.55 209 632C202.63 634.61 196.03 631.64 190 630C194.12 636.05 201.55 640.71 203 648C201.24 648.51 200.11 646.5 199 646C194.28 643.88 190.36 640.7 186 638C182.7 635.96 179.09 634.1 176 632C168.6 628.58 160.09 626.34 152 625C151.12 624.85 150.44 624.11 150 624C131.52 619.24 110.82 628.38 100.75 644.75C90.67 661.11 99.35 681.96 119 687C119.79 687.2 120.57 687.86 121 688C125.55 689.42 131.18 689.61 136 690C137.98 690.16 140.61 690.84 142 691C164.26 693.55 187.51 688.55 208 683C213.6 681.48 220.2 679.03 226 677C235.14 673.79 252.62 667.9 254 656C253.87 654.68 254.06 653.32 254 652C253.81 647.53 252.49 640.75 250 637C248.82 635.75 247 634.87 246 634C240.64 632.76 233.53 637.03 228 634C230.12 627.06 239.13 627.23 243.75 620.75C248.38 614.27 244.65 604.55 236 604C236.48 617.09 217.82 614.48 209 614C205.23 613.17 201.6 611.85 198.25 609.75C194.9 607.65 195.74 603.38 192 602C184.67 601.04 183.48 612.15 186.7 616.3C189.91 620.46 193.34 624.32 198 627Z" fill="#F8EAD1" style="fill:#F8EAD1;fill:color(display-p3 0.9725 0.9176 0.8196);fill-opacity:1;"/>
<path d="M209 614C217.82 614.48 236.48 617.09 236 604C244.65 604.55 248.38 614.27 243.75 620.75C239.13 627.23 230.12 627.06 228 634C233.53 637.03 240.64 632.76 246 634C245.78 630.66 233.87 634.34 229 633C235.78 628.14 244.36 625.03 247.22 616.22C250.08 607.42 233.16 596.3 234 610C226.42 612.1 216.67 614.28 209 614Z" fill="#2D1207" style="fill:#2D1207;fill:color(display-p3 0.1765 0.0706 0.0275);fill-opacity:1;"/>
<path d="M348 631C347.56 626.1 350.39 619.87 352.23 615.23C354.07 610.59 359.95 609.69 362 606C359.67 609.14 352.9 609.87 350.92 614.92C348.95 619.98 346.88 624.97 348 631Z" fill="#190301" style="fill:#190301;fill:color(display-p3 0.0980 0.0118 0.0039);fill-opacity:1;"/>
<path d="M409 611C420.33 608.5 426.75 623.76 419.75 630.75C412.75 637.73 405.27 642.4 404 652C409.72 650 414.58 645.84 420 643C415.35 642.41 410.11 648.77 405 650C409.39 641.17 416.61 636.8 422.69 628.69C428.78 620.59 418.67 606.77 409 611Z" fill="#2D1107" style="fill:#2D1107;fill:color(display-p3 0.1765 0.0667 0.0275);fill-opacity:1;"/>
<path d="M126 612C138.89 610.88 155.87 613.08 168 615C161.72 612.8 155.86 611.14 149 611C145 610.92 141 611 137 611C133.13 611 129.6 611.15 126 612Z" fill="#230803" style="fill:#230803;fill:color(display-p3 0.1373 0.0314 0.0118);fill-opacity:1;"/>
<path d="M406 618C404.34 622.24 399.1 623.31 395 625C395 625 394.5 624.99 394 625C388.76 625.12 383.55 626.68 378 626C376.89 625.86 376.66 625.23 376 625C370.27 623.04 370.08 620.65 366 617C366 617 365.48 616.91 365 617C356.45 618.64 358.38 631.65 364.25 635.75C370.11 639.85 378.21 643.58 385 645C378.32 647.92 369.83 649.68 363 646C351.97 665.37 368.88 684.01 387 689C387.62 689.27 388.58 689.82 389 690C400.09 694.73 412.27 696.31 424 699C424.74 699.17 425.65 699.91 426 700C430.73 701.22 437.06 701 442 701C449.47 701 456.87 701.02 464 700C482.38 697.37 506.04 690.44 506 668C505.96 645.56 486.73 633.4 467 633C462 632.9 457 633 452 633C451.5 633 451 633 451 633C447.16 632.74 443.5 634.02 440 635C433.79 636.73 426.8 639.15 421 642C420.79 642.3 420.3 642.79 420 643C414.58 645.84 409.72 650 404 652C405.27 642.4 412.75 637.73 419.75 630.75C426.75 623.76 420.33 608.5 409 611C408 611 407 611 406 611C406.51 613.89 407.08 615.59 406 618Z" fill="#F8EAD1" style="fill:#F8EAD1;fill:color(display-p3 0.9725 0.9176 0.8196);fill-opacity:1;"/>
<path d="M83 666C83.25 668.03 84.34 671.62 85 674C82.98 661.28 84.44 646.55 92.08 635.08C99.72 623.61 109.8 619.91 121 614C98.57 621.81 79.81 639.6 83 666Z" fill="#250A04" style="fill:#250A04;fill:color(display-p3 0.1451 0.0392 0.0157);fill-opacity:1;"/>
<path d="M366 617C370.08 620.65 370.27 623.04 376 625C375.16 623.93 366.41 615.68 366 617Z" fill="#250A03" style="fill:#250A03;fill:color(display-p3 0.1451 0.0392 0.0118);fill-opacity:1;"/>
<path d="M387 689C368.88 684.01 351.97 665.37 363 646C369.83 649.68 378.32 647.92 385 645C378.21 643.58 370.11 639.85 364.25 635.75C358.38 631.65 356.45 618.64 365 617C357.3 616.53 355.83 629.39 361.75 634.25C367.67 639.11 372.4 643.55 380 645C375.37 650.29 362.41 640.14 360.33 648.33C358.25 656.51 356.63 659.64 360.08 668.92C363.52 678.21 377.67 689.29 387 689Z" fill="#2C1106" style="fill:#2C1106;fill:color(display-p3 0.1725 0.0667 0.0235);fill-opacity:1;"/>
<path d="M395 625C399.1 623.31 404.34 622.24 406 618C404.99 620.26 396.23 621.88 395 625Z" fill="#260C06" style="fill:#260C06;fill:color(display-p3 0.1490 0.0471 0.0235);fill-opacity:1;"/>
<path d="M119 687C99.35 681.96 90.67 661.11 100.75 644.75C110.82 628.38 131.52 619.24 150 624C146.19 619.01 127.01 624.29 119.69 626.7C112.38 629.1 103.91 636.3 99.77 643.77C95.64 651.25 92.39 665.47 97.7 673.3C103 681.14 110.6 687.46 119 687Z" fill="#270D05" style="fill:#270D05;fill:color(display-p3 0.1529 0.0510 0.0196);fill-opacity:1;"/>
<path d="M152 625C160.09 626.34 168.6 628.58 176 632C169.33 627.47 159.76 623.98 152 625Z" fill="#250B04" style="fill:#250B04;fill:color(display-p3 0.1451 0.0431 0.0157);fill-opacity:1;"/>
<path d="M378 626C383.55 626.68 388.76 625.12 394 625C389.98 622.02 382.18 625.59 378 626Z" fill="#210603" style="fill:#210603;fill:color(display-p3 0.1294 0.0235 0.0118);fill-opacity:1;"/>
<path d="M264 641C262.27 635.39 260.19 630.63 255 627C254.54 627.72 263.84 640.66 264 641Z" fill="#260C03" style="fill:#260C03;fill:color(display-p3 0.1490 0.0471 0.0118);fill-opacity:1;"/>
<path d="M451 633C451 633 451.5 633 452 633C455.69 630.27 463.27 632.55 467 633C486.73 633.4 505.96 645.56 506 668C506.04 690.44 482.38 697.37 464 700C470.28 700.11 478.79 700.14 484.98 696.98C491.16 693.81 495.8 692.89 500.25 687.25C504.69 681.6 506.47 676.03 507 669C507.53 661.97 505.18 654.81 501.75 649.25C498.32 643.68 493.56 640.72 488.7 637.31C483.83 633.89 475.09 632.96 470.74 631.6C466.39 630.23 449.65 631.4 451 633Z" fill="#290E06" style="fill:#290E06;fill:color(display-p3 0.1608 0.0549 0.0235);fill-opacity:1;"/>
<path d="M452 633C457 633 462 632.9 467 633C463.27 632.55 455.69 630.27 452 633Z" fill="#BAA283" style="fill:#BAA283;fill:color(display-p3 0.7294 0.6353 0.5137);fill-opacity:1;"/>
<path d="M421 642C426.8 639.15 433.79 636.73 440 635C435.4 635.47 424.52 636.88 421 642Z" fill="#270D05" style="fill:#270D05;fill:color(display-p3 0.1529 0.0510 0.0196);fill-opacity:1;"/>
<path d="M348 656C347.79 659.94 347.85 664.06 348 668C348.15 672 348.4 675.4 350 679C349.09 667.23 346.71 650.89 355 640C353.2 638.73 351.2 636.72 350 635C349.88 637.36 352.3 638.81 354 640C350.38 644.78 348.32 650.02 348 656Z" fill="#260902" style="fill:#260902;fill:color(display-p3 0.1490 0.0353 0.0078);fill-opacity:1;"/>
<path d="M186 638C190.36 640.7 194.28 643.88 199 646C194.67 643.07 189.91 639.7 186 638Z" fill="#260D05" style="fill:#260D05;fill:color(display-p3 0.1490 0.0510 0.0196);fill-opacity:1;"/>
<path d="M254 652C254.7 646.79 254.12 641.36 250 637C252.49 640.75 253.81 647.53 254 652Z" fill="#240903" style="fill:#240903;fill:color(display-p3 0.1412 0.0353 0.0118);fill-opacity:1;"/>
<path d="M266 652C266.81 673.15 255.34 681.73 237 688C221.24 693.39 204.4 698.89 188 702C168.43 705.71 147.14 705.69 128 702C111.91 698.89 95.9 695.8 88 680C87.08 678.15 85.64 676.28 85 674C84.34 671.62 83.25 668.03 83 666C76.67 673.66 51.34 670.72 48.26 684.26C45.18 697.79 64.94 701.6 75.92 706.08C86.9 710.56 102.67 713.01 115.99 716.01C129.32 719.01 148 720.34 162.93 722.07C177.85 723.8 194.12 726.05 210 727C225.88 727.95 243.56 728.32 260 729C276.44 729.68 294.13 730.02 311 730C327.87 729.98 346.65 729.79 363 729C379.35 728.21 396.84 727.78 412.32 726.34C427.8 724.89 443.75 725.21 458.98 722.98C474.2 720.74 490.66 718.07 505 716C519.33 713.93 533.49 708.81 546.31 705.31C559.12 701.8 572.6 687.98 559.75 679.25C546.89 670.53 535.48 669 521 666C520.5 668.85 522.08 672.9 520 675C520.71 671.28 519.49 667.03 519 664C519.23 668.14 519.46 672.88 519 677C517.02 694.69 504.03 704.53 488 709C485.03 709.83 482.04 710.3 479 711C478.3 711.27 478.11 711.81 477 712C473.41 712.6 469.52 713.59 466 714C461.57 714.52 457.41 714.83 453 715C449.35 715.14 445.66 715 442 715C440.37 715 438.62 715.17 437 715C435.23 714.81 432.98 714.24 431 714C418.72 712.49 406.29 709.91 395 706C388.87 703.87 382.87 702.04 377 699C376.67 698.83 376.19 698.32 376 698C367.11 693.63 355.62 689.82 351 680C350.71 679.77 350.15 679.34 350 679C348.4 675.4 348.15 672 348 668C348 668.02 347 668 347 668C346.78 668.95 347.39 670.74 346 671C346.01 663.6 345.64 656.06 347 649C321.1 648.02 293.84 647.76 267 648C267.82 649.51 266.21 651.13 266 652Z" fill="#EDD0A0" style="fill:#EDD0A0;fill:color(display-p3 0.9294 0.8157 0.6275);fill-opacity:1;"/>
<path d="M226 677C234.94 675.36 255.25 668.58 254 656C252.62 667.9 235.14 673.79 226 677Z" fill="#2C1006" style="fill:#2C1006;fill:color(display-p3 0.1725 0.0627 0.0235);fill-opacity:1;"/>
<path d="M347 668C347 668 348 668.02 348 668C347.85 664.06 347.79 659.94 348 656C347.45 659.42 346.63 663.83 347 668Z" fill="#58361C" style="fill:#58361C;fill:color(display-p3 0.3451 0.2118 0.1098);fill-opacity:1;"/>
<path d="M128 702C115.17 696.49 98.04 694.94 88 680C95.9 695.8 111.91 698.89 128 702Z" fill="#2C0E03" style="fill:#2C0E03;fill:color(display-p3 0.1725 0.0549 0.0118);fill-opacity:1;"/>
<path d="M376 698C373.48 693.75 366.14 692.75 362.25 689.75C358.35 686.76 354.67 682.87 351 680C355.62 689.82 367.11 693.63 376 698Z" fill="#2D0E03" style="fill:#2D0E03;fill:color(display-p3 0.1765 0.0549 0.0118);fill-opacity:1;"/>
<path d="M142 691C141.05 691.22 139.26 690.61 139 692C150.94 691.75 166.76 692.74 177.98 690.98C189.19 689.21 200.43 687.1 208 683C187.51 688.55 164.26 693.55 142 691Z" fill="#250A04" style="fill:#250A04;fill:color(display-p3 0.1451 0.0392 0.0157);fill-opacity:1;"/>
<path d="M188 702C204.4 698.89 221.24 693.39 237 688C232.29 688.75 225.48 690.18 220.01 692.01C214.54 693.84 208.56 696.21 203.01 697.01C197.46 697.81 190.05 701.24 188 702Z" fill="#301105" style="fill:#301105;fill:color(display-p3 0.1882 0.0667 0.0196);fill-opacity:1;"/>
<path d="M136 690C131.18 689.61 125.55 689.42 121 688C123.46 690.72 131.28 690.32 136 690Z" fill="#210703" style="fill:#210703;fill:color(display-p3 0.1294 0.0275 0.0118);fill-opacity:1;"/>
<path d="M424 699C412.27 696.31 400.09 694.73 389 690C392.57 695.77 416.53 699.99 424 699Z" fill="#270D06" style="fill:#270D06;fill:color(display-p3 0.1529 0.0510 0.0235);fill-opacity:1;"/>
<path d="M377 699C382.87 702.04 388.87 703.87 395 706C392.61 704.7 381.35 697.87 377 699Z" fill="#290B02" style="fill:#290B02;fill:color(display-p3 0.1608 0.0431 0.0078);fill-opacity:1;"/>
<path d="M442 701C437.06 701 430.73 701.22 426 700C428.16 702.83 437.47 701.44 442 701Z" fill="#1F0704" style="fill:#1F0704;fill:color(display-p3 0.1216 0.0275 0.0157);fill-opacity:1;"/>
<path d="M466 714C469.52 713.59 473.41 712.6 477 712C477.48 711.85 478.15 711.2 479 711C482.04 710.3 485.03 709.83 488 709C485.1 709.37 479.45 710.32 475.67 710.67C471.89 711.02 466.21 713.94 466 714Z" fill="#2A0C02" style="fill:#2A0C02;fill:color(display-p3 0.1647 0.0471 0.0078);fill-opacity:1;"/>
<path d="M477 712C478.11 711.81 478.3 711.27 479 711C478.15 711.2 477.48 711.85 477 712Z" fill="#8B6745" style="fill:#8B6745;fill:color(display-p3 0.5451 0.4039 0.2706);fill-opacity:1;"/>
<path d="M431 714C432.98 714.24 435.23 714.81 437 715C437.4 712.89 440.53 714.98 441 713C437.77 711.98 433.49 713.93 431 714Z" fill="#260A04" style="fill:#260A04;fill:color(display-p3 0.1490 0.0392 0.0157);fill-opacity:1;"/>
<path d="M442 715C445.66 715 449.35 715.14 453 715C449.74 714.81 445.39 714.64 442 715Z" fill="#1C0300" style="fill:#1C0300;fill:color(display-p3 0.1098 0.0118 0.0000);fill-opacity:1;"/>
</svg>
